<svg xmlns="http://www.w3.org/2000/svg" width="216.08" height="216.08" viewBox="0 0 216.08 216.08"><defs><style>.a,.c{fill:#fadd3d;stroke:#fadd3d;}.a,.b,.c{stroke-linecap:round;stroke-linejoin:round;}.a{stroke-width:3px;}.b{fill:#fff;stroke:#fff;}.b,.c{stroke-width:0.05px;}</style></defs><title>Asset 1</title><path class="a" d="M214.58,108A106.54,106.54,0,1,1,108,1.5,106.54,106.54,0,0,1,214.58,108Z"/><path class="b" d="M114.07,57.24l3.18-7.06,3.54-6.34,5-5.68,3.64-3.64L135.79,30l5.45-2.5c2.28-.38,4.79-1.22,7-1.27l4.32-.13,6.59.88,7.24,2.47L170.91,32a77.52,77.52,0,0,1,7.43,5.45L184,43.64l3.47,5.3a83.43,83.43,0,0,1,5,12.49l1,7.4-.55,7.8-2.86,8.92-4.18,7.59-6.2,7-7.47,5.1c-3.21,2-6.32,2.88-10.77,4.12-4.05.59-8.29.41-12.5.59l-9.32-1.56a49.23,49.23,0,0,1-9.77-3.86,53.34,53.34,0,0,1-9.54-7.05,36.94,36.94,0,0,1-4.51-5.84c-1.76-2.87-2.59-6.18-3.86-9.38a43,43,0,0,1-1-10.45l1.08-7.18c.49-2.25,1.13-4.68,2-7.37Z"/><path class="c" d="M120.43,70.79c.59,2.28.94,4.81,1.95,6.68l3.19,5.22,4.09,4.09,4.77,3.41,4.77,2.27,6.13,1.82,4.09.46,6.36.9,7.71-1,5.7-1.9,5-3.41,5.45-5.22,2.73-5,2.27-4.77-.56,4.54-.8,3.64-1.59,4.09-3,4.54a41.35,41.35,0,0,1-5.22,5.68l-3.18,2.27-6.14,3.18-4.12,1-4.51.6-6.36.44-7.73-1.8-6.34-1.88L129,96.81c-1.51-1.34-2.87-3-4.6-4.8a34.32,34.32,0,0,1-3.86-6.36,36.29,36.29,0,0,1-1.14-7.05V75.2Z"/><path class="c" d="M161.24,33.16l4.09-.91L166,32c.26-.2.2-.72,0-1.37l-3.18-1.13L156,28.84h-3.86l-3.18.69-.68.9c1,1.19,2.26,1.29,3.18,1.93l4.46.63Z"/><path class="b" d="M23.31,100l2-7.49,2.45-6.84,4-6.42,3-4.19,5.52-5.53,5-3.37c2.18-.75,4.52-2,6.67-2.4l4.24-.84,6.64-.22,7.55,1.24,4.9,1.78a81.48,81.48,0,0,1,8.23,4.14L90,75l4.29,4.65a83.41,83.41,0,0,1,7,11.5l2.25,7.13.74,7.77L103,115.33l-2.88,8.18-5,7.9-6.52,6.27c-2.84,2.47-5.76,3.88-9.95,5.84-3.89,1.25-8.11,1.77-12.23,2.64H57A48.56,48.56,0,0,1,46.7,144a52.7,52.7,0,0,1-10.57-5.38,35.9,35.9,0,0,1-5.41-5c-2.21-2.55-3.58-5.67-5.36-8.62a42.35,42.35,0,0,1-2.66-10.15l-.13-7.25c.12-2.31.35-4.81.74-7.6Z"/><path class="c" d="M31.81,112.27c1,2.15,1.73,4.59,3,6.27l4,4.63,4.71,3.35,5.27,2.58,5.08,1.45,6.35.78,4.11-.23,6.43-.15,7.42-2.32,5.31-2.81,4.37-4.19,4.51-6,1.87-5.38,1.45-5.08.19,4.57-.18,3.72-.9,4.3-2.16,5a41.35,41.35,0,0,1-4.22,6.46l-2.76,2.77-5.52,4.15-3.91,1.65-4.35,1.34-6.2,1.48-7.92-.5-6.56-.8-6.64-2.71c-1.71-1.08-3.32-2.49-5.33-4a34.19,34.19,0,0,1-4.86-5.64,35.8,35.8,0,0,1-2.28-6.76l-.57-3.36Z"/><path class="c" d="M65.85,68.42l3.88-1.57.63-.34c.23-.23.08-.73-.22-1.34l-3.33-.6L60,65l-3.81.63-3,1.2-.53,1c1.19,1,2.45.89,3.46,1.38l4.5-.12Z"/><path class="b" d="M171,135.41l2.5,4.45,1.46,7.49-.6,6.7-3.28,8.26-2.28,4.16L167,169.56c-1,2.06-1.59,2.2-2.83,4l-3.34,3.57-4,3.49-3.24,2.6L150,185.47c-3.41,1.38-2.77,1.65-5.56,2.47l-5.05,1.29-6.6.76a46.88,46.88,0,0,1-9.84-2.3l-7.3-4.68-4-3.76L106.86,173l-2.72-5.82-2.36-7.71-.07-8.43a33.53,33.53,0,0,1,2-10.77c1.89-3.62,3.17-7,5.49-10.47l6.49-8c2.87-2.26,5.81-3.25,8.86-4.74,3.79-1.72,6.64-1.22,10.4-2,2.67-.47,5.42.43,7.83.46,3.35.26,7.21,3.12,10.54,4,3.26,1.44,4,2.54,6.75,4.68l4.95,3.72c1.54,1.72,4.27,5.25,5.95,7.51Z"/><path class="c" d="M133.44,124.19l-1.74,1.31L129.94,127,128,128.86l-1.65,1.52-2,2-1.78,2.23-1.86,2.27-3.83,6-2.73,6.64-1.34,7.14,0,6.11a36.69,36.69,0,0,0,1.49,7.39l2.09,5.32,2.53,4.61-3.56-3.24L112.79,174l-2.56-3.69-2.38-5.11a44,44,0,0,1-1.9-7.58l-.12-3.84.67-7,1.34-5.32,2.08-4.29,3.39-5.61a21.24,21.24,0,0,1,5.35-5.56c1.26-1.8,3.84-2.55,5.94-3.68a18.49,18.49,0,0,1,6.35-1.61c2-.44-.22.06,2.25-.28a15.51,15.51,0,0,1,4.9,0c2.43.69-1.69.54-2.16,1.88l-1.36,1.16Z"/><path class="c" d="M156,174.1l-1.66,3.84-.22.69c0,.32.47.57,1.11.8,1,.09,2-.83,3-1.42,3.92-4.68,2.81-2.42,4.9-5.76l1.71-3,1.31-3-.34-1.09c-1.55-.73-2.36.9-3.42,1.45l-3.12,3.24Z"/></svg>