<svg xmlns="http://www.w3.org/2000/svg" width="216.08" height="216.08" viewBox="0 0 216.08 216.08"><defs><style>.a,.c{fill:#54bf36;stroke:#54bf36;}.a,.b,.c{stroke-linecap:round;stroke-linejoin:round;}.a{stroke-width:3px;}.b{fill:#fff;stroke:#fff;}.b,.c{stroke-width:0.05px;}</style></defs><title>Asset 1</title><path class="a" d="M214.58,108A106.54,106.54,0,1,1,108,1.5,106.54,106.54,0,0,1,214.58,108Z"/><path class="b" d="M150.93,46.69l-.21-1.81-.58-1.17-.91-1.22-.85-.64-.95-.53L145.78,41l-4,0-2.49-.27-.75-.32.91.91.58.95.69,1.38.21,1.44-.05,1.49-.48,1.06-.16.85.32,1,1.17.74,1.54.69,1.86.38,3.29-.48,1.38-.91.75-.9.26-1Z"/><path class="b" d="M86.54,47l1.64-.63.69-.91.43-.85.11-1.11-.22-1.17-.47-1.44-.64-2.28-.32-1L87.7,36l.43-1.17.85-.53,1.11-.47,1.23-.27,1.38.11,1.27.53,1.22.85,1.23.63,1.59.64,1.65-.1,1.17-.48,1.22-1,1.54-1.86,1-1.33,1.22-1.17,1.22-.74,1.65-.26,1.54.21,2.87,1.06,1.7.48,1.59.21h1.12l1.7-.64,1.86-.63,2.44-.48,1.7.1,1.76.69,1.8,1,1.33,1.38,1.65,2.18L133,36.8,134,38.93,133,38.72l-3.24-.11-1.81.11-1.64.21-1.81.37-2.18.8-1.7.69-.69.8-.37,1.16v1l.32,1.17.74,2.34-2.76-1.12-2.34-1.06-2.76-1.33-3-1.17L107.84,42l-2.66-.43-1.91.11-1.7.9-1.33,1.33-.53,1.86-.42,3-.54,2.44-.9,2.18-1.17.48-1.59-.21-1.91-.91-2.61-1.8-2.76-2.61Z"/><path class="b" d="M76.91,59.62V56.35l.42-2.59,2.09-3.18,1-1.93a4.08,4.08,0,0,0,.16-1.76,3.15,3.15,0,0,0-1.78-1.32l-2.84-.88c-1.1.08-2.34-.1-3.1.39-1.75.77-1.47,1.14-1.87,1.65L69.6,50l-1,1.54-1.35.77-1.76.47c-.11.3-.38.57.06.74l1.73,1.92A5.66,5.66,0,0,1,69,58.69l0,1.73a7.8,7.8,0,0,1-1.18,2.86l-1,1,2.31-.58L72,63.09l2.44-1,1.74-1Z"/><path class="b" d="M83.69,48.65l-1.56,2.67-1,2.87-.35,2.52-.36,2.15-.27,1.89-.81,1.16-1.08,1.26-1.17.63L75,65.24l-2.07.53-3,.81-3.14.63-2.16.54-1.52.54,3,1.25,2.87,1,3.24,1,4.66,1.53,4.14.8,1.61.9,2.25,3.41,1.25,1,1.35.63h2.15l1.17.63,1.08.81.54,1.52-.54,1.71V85.8l.27.71,1,.63.44,7.63.09,19.58-1,7.09-1.08,13.83-.81,8.26-.45,8.88v5.3l.36,7.72,1.08,4.76,1.7,3.5L95,175.58l.63.27L97.4,180l2.06,2.69,2.51,1.89,2,1.07.09.27,2.51.36,3.59.45,3.51-.18,1.43-1h0l1.8-1.07,1.61-2.25,1.53-1.88.9-1.53a13.59,13.59,0,0,0,4-2.88l2-3.49,1.44-3.68,1-4.76.36-4.67-.36-7.9-.54-7.46-.45-6-.27-5.84-.18-8.17.36-15.17-.54-12.93V88.49l-.18-5.66.6-.12.67.61,1.21.39.83.16.33-.33,1.5-1.93,1.82-1.94,1-1.27.23-.77v-.78l.16-.55.94-1.6,2-1.72,2.1-1.43,2.43-1.22,2.88-1.16,2.37-1.38,1.77-1.22,1.27-1,.72-.78L153,64h-1l-1.93-.33-1.6-.5-1-.66-.44-.72-.11-1.22.83-1.76,1.77-2.44L151,54.58l.61-1,.44-.83.22-.56-.88.45-1.44.44-1.77.44-1.71.11-1.44.11-2-.11-1.38-.33s-1-.89-1-.44-1.54-.94-1.54-.94L138,50.77l-.5-1.5V47.84l.45-2.32.33-1.44-.44-1-.94-.88-2.22-.72-2.1-.27h-2.65l-2.15.11-1.77.33-1.49.66-.89,1.44,0,2.21.27,1.82-.38,1.49-1,.39-1.77-.16L118,48.67l-2.59-.89-3.1-1.21-2.82-1-1.93-.45-1.38-.16-1.11.05-1.66.45-1.05,1.16L102,48.45l-.44,2.37-.33,1.77L100.64,54l-.89,1.21-1.21.94-1.38.33H95.28L93.45,56l-2.26-1.33L88.7,53l-1.82-1.66-1.33-1.21-1.38-1.11Z"/><path class="c" d="M120.7,71.71l-.44-5.47L120,61.71l-.22-1.16-.61,1.55-.5,1.71-.38,1.66-.28,1.82L118,68.78l.17,2.1.16,4-.11,3.93-.16,5.8.44,0,0,2.76.22,4.2.16,2.54.33,4.64.83,13.66-.22,5.91-.16,4.7.11,4-.06,2.21.11,9.89.61,8.74.28,4.92.27,2.65,1,14.81.16,1.71-.22,2.1-.27,1.16-.06,1.05,1.22-.93,1-1,.5-.78.5-.88.6-2,.56-3.32.49-8.29v-5.8l-.27-7.08-.39-7.4-.28-5-.44-6.13-.22-2.1v-5.36l-.11-4.31-.17-4.76-.38-21.22V83.32l-.22-2L123.63,79l-.22-2.48V74.64l-.22-1.32-.22-.67-.28-.38-.39-.11-.61-.17h-.33Z"/><path class="c" d="M94.51,63.64l2.43,1.28,2.15.88,1.33.39,1.55.11.94-.5.11-1-.45-1.22.17-.33L104.12,65l1.94,2.65,3.37,4.87,1.82,2.87L113.79,79l.89,2.37.72,2.27.27,1.94.45.16v2.32l.16,2.27.22,6L116.11,108l-.44,15.2.61,8.73,1,17.52.5,8.62.22,10.56-.44,5.52-1.39,4.09-1,1.66-1.6,1.33-2.26,1.1-1.72.56h-2.37l-1.88-.83-2.6-2.05-2-3.09L99.2,172.3l-.38-5,.11-4,.11-6,.27-3,.44-8.45L101,136l1.33-10.77.72-8,.16-4.42.06-1.94v-1.82l-.11-2.6.55,3.93.22,3.75.5,4.76.38,3.7.89,9.73.66,7.85.61,7.79.28,3.09v8l-.06,4.7-.28,4.81.5.77.55.33.72,0,.61-.39-.06-.39.39-8.06-.11-4.81.06-2.16-.45-8.29-.77-9.78-.83-8.84-1.66-16.58-.71-9.07-.72-6.52-.11-.5-.22-.05.66-7.41.5.17-.17-.56-.28-.82.06-1.33-.17-2.6V80.22L104.45,78l-.77-2.65-.94-2.27-1.55-2.59-2-2.66-1.88-1.76-1.27-1.16Z"/><path class="c" d="M95.07,171l-.19-6.54.39-9.8L98,137l2.5-15.95.57-6v-6l.39-22.88-1.16-4.42-1-1.54-1.2-1.85-1.64-1.92L94,74.6,94.83,77l1,1.63,1,1.83v1.92l.1,1.73L96.66,86l-.39,1.34.29,1L96.85,91l.09,3.65.29,6.06.1,5.19L97,112.57v2.89L95.79,128l-.87,5.77-.48,6.15L94.06,143l-.29,8-.19,6.54-.19,4,.19,4.23.29,2.5.57,2.12Z"/></svg>