<?xml version="1.0"?>
<svg xmlns="http://www.w3.org/2000/svg" xmlns:xlink="http://www.w3.org/1999/xlink" version="1.1" id="Layer_1" x="0px" y="0px" viewBox="0 0 511.999 511.999" style="enable-background:new 0 0 511.999 511.999;" xml:space="preserve" width="512px" height="512px" class=""><g><g>
	<g>
		<path d="M494.607,144.235c-0.985-3.066-3.611-5.319-6.792-5.826c-31.585-5.043-80-5.972-131.29,18.205    c-20.65,9.734-40.056,22.747-57.737,38.69h-85.577c-17.68-15.943-37.087-28.956-57.737-38.69    c-51.29-24.175-99.704-23.243-131.29-18.205c-3.182,0.507-5.807,2.76-6.792,5.826c-11.38,35.41-17.23,72.443-17.389,110.074    c-0.163,38.686,5.688,76.763,17.389,113.173c0.98,3.052,3.585,5.297,6.747,5.818c10.75,1.775,23.419,3.074,37.471,3.074    c27.686,0,60.726-5.049,94.959-21.464c20.283-9.726,39.331-22.673,56.673-38.497h88.851c4.722,0,8.55-3.827,8.55-8.549v-24.347    c10.527,3.074,21.258,5.464,32.037,7.116c8.2,1.255,16.553,2.105,24.828,2.529c0.148,0.008,0.296,0.011,0.445,0.011    c4.521,0,8.298-3.545,8.531-8.112c0.242-4.716-3.386-8.734-8.102-8.976c-7.704-0.394-15.482-1.187-23.113-2.354    c-11.678-1.79-23.296-4.508-34.626-8.086v-25.435c10.991-3.338,23.702-6.804,34.411-8.17c13.935-1.776,28.112-2.1,42.137-0.969    c4.69,0.377,8.83-3.127,9.21-7.834c0.38-4.707-3.127-8.83-7.834-9.21c-15.202-1.229-30.57-0.874-45.674,1.051    c-10.247,1.305-21.786,4.237-32.251,7.29v-14.742c16.326-14.653,34.198-26.603,53.172-35.548    c44.614-21.03,86.924-21.472,116.097-17.55c9.803,32.203,14.842,65.765,14.986,99.851c0.147,35.107-4.895,69.675-14.995,102.84    c-55.002,6.357-95.813-7.673-140.705-29.2c-4.257-2.043-9.363-0.245-11.405,4.013s-0.245,9.365,4.013,11.406    c34.236,16.417,57.377,30.399,118.584,32.937c14.036,0.583,26.724-1.301,37.471-3.074c3.161-0.521,5.767-2.768,6.746-5.818    c11.701-36.409,17.552-74.486,17.389-113.173C511.838,216.679,505.988,179.646,494.607,144.235z M201.355,222.369    c-10.464-3.053-22.002-5.985-32.251-7.29c-15.104-1.924-30.471-2.279-45.674-1.051c-4.707,0.38-8.214,4.503-7.834,9.21    c0.381,4.708,4.503,8.221,9.21,7.834c14.027-1.13,28.203-0.805,42.137,0.969c10.711,1.365,23.421,4.831,34.411,8.17v25.435    c-11.33,3.576-22.948,6.296-34.625,8.084c-7.633,1.168-15.41,1.962-23.115,2.355c-4.716,0.242-8.343,4.26-8.102,8.976    c0.234,4.567,4.01,8.112,8.531,8.112c0.147,0,0.295-0.003,0.445-0.011c8.276-0.424,16.629-1.274,24.829-2.531    c10.778-1.651,21.51-4.04,32.037-7.114v20.604c-16.009,14.547-33.547,26.437-52.181,35.372    c-44.891,21.527-87.614,21.845-117.08,17.726c-10.099-33.167-15.142-67.734-14.994-102.84    c0.143-34.085,5.181-67.648,14.984-99.851c29.171-3.919,71.483-3.479,116.097,17.551c18.973,8.944,36.846,20.894,53.172,35.548    V222.369z M293.543,233.881c0,0.03,0,0.06,0,0.09v65.344h-75.089v-65.344c0-0.03,0-0.06,0-0.09v-21.479h75.089V233.881z" data-original="#000000" class="active-path" data-old_color="#b4d2c8" fill="#b4d2c8"/>
	</g>
</g></g> </svg>
