<svg xmlns="http://www.w3.org/2000/svg" width="216.08" height="216.08" viewBox="0 0 216.08 216.08"><defs><style>.a{fill:#c27344;stroke:#c27344;stroke-width:3px;}.a,.b,.c,.d{stroke-linecap:round;stroke-linejoin:round;}.b{fill:#fff;stroke-width:0.05px;}.b,.c,.d,.e{stroke:#fff;}.c,.d,.e{fill:none;}.c{stroke-width:1.9px;}.d,.e{stroke-width:0.4px;}</style></defs><title>Asset 1</title><path class="a" d="M214.58,108A106.54,106.54,0,1,1,108,1.5,106.54,106.54,0,0,1,214.58,108Z"/><path class="b" d="M144.4,109.93l2.52-5.49,3.21-4.72,3.08-3,3.25-2.55,4-2,5.27-1.58,5.18-1,3.87-.53,3.69-.27,4.31.44,2.63.79L187,91.11l1.5,1.4,1,1.41L190,96.2l.09,2.29-.22.92-27.18,15.45,28-14,.77.82.92.85,1.12,1.48.79,1.49.44,1.16.31,1.39.13,1.43-.3,2-.4,1.38-.68,1.6L193,116l-1.07,1.6-1,1.26-1.69,1.84-1.17,1.06-2.39,2.06-2.18,1.65-3.6,2.31-3.19,1.8L174,131l-3.28,1.43-3.75,1.3-2.88.65-1.43.14-1.38.08-1.78-.13-1.36-.2-1.45-.33-1.26-.43-1-.44L152,131.66l-1.39-1-1.67-1.54-1.09-1.27-1.34-1.67-1.41-2.29-.79-1.51-.42-1.08-.33-1.25-.15-1.12-.16-1.71.07-1.74.2-2,.5-2.09Z"/><path class="b" d="M123.4,184l-5.54-3.7-3.17-4.9L113,171.29l-1.38-4.15-1.15-4.29-.45-5.48-.48-5.29.29-4.16.69-4.1,1.67-3.42,1.32-2.41,1.47-1.4,1.69-1.17,1.57-.65,2.35,0,2.25.39.86.41,9,34.5-7.4-35,.86-1.2,1.21-.81,1.67-1.05,1.45-.29,1.41-.18,1.33,0,1.68.43,1.72,1,1.62.94,1,1,1.31,1.15,1.34,1.39,1,1.21,1.45,2,.79,1.36,1.52,2.77,1.16,2.48,1.94,3.83,1.36,4,.52,2.89.63,3.32.14,3.86,0,3-.17,1.42-.2,1.38-.5,1.71-.48,1.29-.62,1.35-.69,1.13-.65.94-1.82,2-1,1.4L145.09,182l-1.39,1.16-1.82,1.31-2.18.82-2,.28-1.66.18-1.29.15h-1.48l-1.62,0-1.6-.16-1.69-.27-2.55-.75Z"/><path class="c" d="M73.19,85.11l4.27-10.66,4.92-9.25L87.73,56l4.78-7.08,6.77-6.77,5.12-3.5,7.66-2.37,9-1.17,9.53.9,8.08,4.44,6.56,5.14,3.63,6.14L150,58.33l-.24,7.82-1.35,6.91-3.28,6.55-3.24,3.69-6.14,4.48-5.37,4.12-8.17,5.82-8,6.27-4.11,5.73-5.57,10-4.62,11.22L94.59,139l-6.12,5.41-6.69,4.72L70.65,152.9l-11.13,1.79-10.22.53-8.36-.93-5.33-1.56L31.46,150l-3.73-5-1.9-13.69,1.92-8,4.18-9.51L36.61,107,44,99.17l9.75-6.5,6.54-3.35L66.7,87Z"/><path class="d" d="M95.76,50.86l9.37,1.72L116,56,125.58,61l10.11,7.15,9.12,7.39h0"/><path class="e" d="M84.18,67.62l13.06,1,10.35,3.45,10.35,7.89,9.62,10.35"/><path class="e" d="M74.81,89.06h5.67l4.44,1.23,8.38,4.19L99,98.18l3.45,3.45,5.91,6.4"/><path class="e" d="M45,101.63l8.14,1.23,10.1,2.71,9.12,3.7,7.89,5.67,5.42,5.66L88.37,125l5.42,10.1"/><path class="e" d="M31.68,117.65l14.3,3.2,7.39,3,8.88,4.68,7.39,6.65,3.94,4.44,6.9,8.63"/><path class="e" d="M106.11,42.48l-.49,9.61-3.7,8.38L96.26,72.05,84.43,90.29l-17.5,17-9.37,8.62-8.87,6.41-9.12,7.39-3.7,3.21-7.39,5.17,1.23-1"/><path class="e" d="M35.14,149.44l4.18-2.22,18.74-14.54,10.35-9.12,8.38-8.62,11.09-12.82,7.64-10.6,7.88-10.35,6.41-11.58,2.71-5.92,3.7-8.13,3-10.6,1.23-7.64"/><path class="e" d="M132.48,38.78l-3.69,10.85-4.19,13.3L119.92,76l-7.64,11.83-6.66,8.62-4.19,5.18-6.9,10.59-4.93,6.17-3.7,4.19L79,130.22l-6.9,5.17-21.19,17.5"/><path class="e" d="M139.63,44l-2.22,11.33-1,6.66-2,7.15-4,10.84-3.45,9.61"/></svg>