<svg xmlns="http://www.w3.org/2000/svg" width="180.62mm" height="180.62mm" viewBox="0 0 511.99 511.99"><defs><style>.a{fill:#c8b4a0;}.b{fill:#fff;}</style></defs><title>Artboard 1</title><path class="a" d="M262.46.11C161.45-3.4,76.72,75.63,73.21,176.64q-.1,3.18-.11,6.36c0,117.1,112.37,202.09,175.36,324.3a8.64,8.64,0,0,0,15.34,0c57-110,154.37-183.71,172.41-289.65C454.9,108.05,373.61,3.85,262.46.11ZM256.12,278.9A95.87,95.87,0,1,1,352,183a95.87,95.87,0,0,1-95.88,95.9Z"/><ellipse class="a" cx="255.83" cy="180.5" rx="143.54" ry="129.69"/><path class="b" d="M260.72,285.65V209.73a61.46,61.46,0,0,0,56.69-61.17c0-13.35-7.13-35.52-12.35-51.72l-2-6.37a4.73,4.73,0,0,0-4.51-3.31H214.18a4.72,4.72,0,0,0-4.42,3c-4.56,12.09-15.17,42-15.17,58.36a61.46,61.46,0,0,0,56.69,61.17v75.92c-23.71,1-47.24,9.14-47.24,23.53a4.71,4.71,0,0,0,4.71,4.71h94.49a4.73,4.73,0,0,0,4.72-4.72h0C308,294.79,284.42,286.62,260.72,285.65ZM204.27,153.29c-.14-1.56-.23-3.12-.23-4.72,0-11.47,6.73-33.8,13.42-52h77.61l1,3.14c4.73,14.75,11.93,37,11.93,48.86,0,1.6-.09,3.16-.23,4.72Z"/></svg>