<svg xmlns="http://www.w3.org/2000/svg" width="180.62mm" height="180.62mm" viewBox="0 0 511.99 511.99"><defs><style>.a{fill:#c8b4a0;}.b{fill:#fff;}</style></defs><title>Artboard 1</title><path class="a" d="M262.46.11C161.45-3.4,76.72,75.63,73.21,176.64q-.1,3.18-.11,6.36c0,117.1,112.37,202.09,175.36,324.3a8.64,8.64,0,0,0,15.34,0c57-110,154.37-183.71,172.41-289.65C454.9,108.05,373.61,3.85,262.46.11ZM256.12,278.9A95.87,95.87,0,1,1,352,183a95.87,95.87,0,0,1-95.88,95.9Z"/><ellipse class="a" cx="254.73" cy="187.27" rx="136.52" ry="124.58"/><path class="b" d="M256.12,271.23,242.7,257.81c-49.85-44.1-82.45-73.82-82.45-110.25,0-29.72,23-52.73,52.73-52.73A57.63,57.63,0,0,1,256.12,115a57.62,57.62,0,0,1,43.15-20.13c29.72,0,52.73,23,52.73,52.73,0,36.43-32.6,66.15-82.45,110.25Z"/></svg>