<svg xmlns="http://www.w3.org/2000/svg" width="216.08" height="216.08" viewBox="0 0 216.08 216.08"><defs><style>.a{fill:#1cb6f1;stroke:#1cb6f1;stroke-linecap:round;stroke-linejoin:round;stroke-width:3px;}.b,.c{fill:#fff;stroke:#fff;}.b{stroke-width:0.05px;}.c{stroke-width:0.05px;}</style></defs><title>Asset 1</title><path class="a" d="M214.58,108A106.54,106.54,0,1,1,108,1.5,106.54,106.54,0,0,1,214.58,108Z"/><path class="b" d="M145.15,124.79l-1.33,11-1.4,5a26.23,26.23,0,0,1-2.2,5.59c-.89,1.39-2.6,2.54-3.9,3.81l-6.88,5-5.32,3.36-4,1.95-8.21.08-4.61-.16c-3.86.21-8.11,0-12.18,0-4.35-1.76-8.5-4.93-12.75-7.42l-7.51-6.18-2.32-5.15-1.88-8.54-1.11-11.63.94-4.85,1.67-2.89,1.69-2,1.95-4.45,3.68-9.15,2-3,3.2-2.73,4.15-2,1.87-1.41,1-1.25.47-1,.54-2,.71-1.57,2.11-.47,2.19.79,2.34,1.56,2.11.47,2.27-.32,1.82,0c.4.12.29.25.37.37l.73.1.3.24.16-.42.63,0,.37-.34,1.11,0,1.46.2,1.15,0,1.25,0,1.06-.24.87-.39,1.51-1,.61-.24.8-.31,1.09-.33L121,83l1,.7.5,1.24.33,2.39.67.83L125,89.7l3.22,1.61,2,.94,2,1.44L133.45,95l1.48,2.55.48,1,1.37,2.75,1.65,4.07.57,1.51,1.77,4,2,2.91,1.54,2.62.31.83.63,1.46Z"/><path class="b" d="M69.81,113.65l1.85-2.37h.17l.75-1,1.93-5.19,1.59-4.69-8.28-6.33,1.5-2.3,1-3.52,0-5.76-1-5.47,3.93-2.26,5.68-4.43,6-6.63,3.35-6.62,1.26-6.7A34,34,0,0,0,88.92,45l-.59-2.6-1.92,3.52-2.68,4.35-3.44,3.94-3,3.27-3.6,2.93-3.43,2.26-2.41,1.26L68,59.17l1.85-10,3.1-8,3-7.21-3.35,2.51-5,3.19L65,41.65l-3.6,3.61-3,3.85-2.76,3.94-2.85,6-2.26,8-.67,5.45-.17,4.27.67,6.2,1,3.94L52.73,91l1.42,2.43,1.59,1.51L57.17,96,58.84,99l1,2,2.43,4.61,2.51,3.19,1.68,2L68,112.43l1,1c.58-.11.49-.34.78.25Z"/><path class="b" d="M69.7,114.09l-3.94-1.27-3.08-1L59.54,111l-1.74-.38-1.4-.26-.95.16-.8.32-.6.51-1.11,1-.57.44-.38.73.06.8.22,1,.76,1.21,1.08,1,1.08.86,1.72,1.3L59,120.69l1.78.86,1.91.86,3.9,1.58-3.71.54-4,.61-3.39.38-2.35.38-1.18.57-.89.92-.5,1.27L50.18,130l0,1.23.7,1.08,1.3.8,1.59.54,1.93.47,1.84.22,2.32.1,2.64,0,2.15-.19,2.39-.22.54-.13-1,.35-1.49.51-2.92,1.33-2.7,1.84L58.18,139l-1.37,1.27L55.32,142l-1.14,1.71-.64,1.37-.19,1.68L54,148l.77.86.73.47.85.48,1,.25,1-.19,1.4-.51,1.2-.57,1.46-.89L64,146.85l1.17-.66,1.43-.64,2-.82,1.53-.42.66-.19-1,.64-1,.79-1.65,1.53-.73,1-1.05,1.62-.89,1.84-.57,1.53-.22.92.09,1.14.29,1.37,1,.89.82.31.41,0,.8.39.89.25,1.3-.41,1.14-.83,1.49-1.52,1.3-.89L76,153.11l1.77-.8.38-.22-1-.82L75.54,150l-1.05-1.18-1.11-1.43-.79-1.26L71,142.47l-.73-2.41-1.08-4.6L69,134l-1-6.83-.22-3.27.12-4.32.16-1,.16-.26,0-.28.1-1.08.69-1.53.48-1Z"/><path class="b" d="M43.08,104l.37.88.86,1.45.95,1.57.86,1.1.92,1.24.65.72.53.41.8.39.65.08.89,0,.86-.41.86-.86.47-1.18.06-1.1-.47-1.78-.89-1-1.75-2.2-2-2.81-1.34-2-.8-1.25-.94-.89L44,95.89l-1-.24-1,.45-.68.68-.18,1,.18,1.1.3,1.39.5,1.48.3.86.36.76Z"/><path class="b" d="M39.3,83.54l-.11,1-.18,1,0,1.81,0,1.55.06,1.24.14,1.55.08.91.13.59.31.55.37.54.43.24.61.26.68-.09.72-.26.46-.54.26-.48.17-.55,0-.48,0-.41-.2-.26L43,90.53l-.52-2-.29-1.33-.1-.74-.48-1.63L41.08,83l-.43-1.11-.2-.31-.26-.15-.37.39-.26.77-.13.61Z"/><path class="b" d="M31.5,103.49l-.28.28-.24,1-.13.94-.11,1.26-.07,1.55,0,1,0,1,.17,1.27.28,1.31.33,1.3.28.44.24.63.33.52.52.29.72.1.57-.15.19-.15.79-.46.35-.5.13-.35.15-.54-.15-.92-.42-.58-1-2.12-.66-1.87-.74-2.62-.48-1.52-.32-.89-.18-.31Z"/><path class="c" d="M39,125.42l-1-.92L37,123.7l-1.07-.92-.55-.78-.5-1-.41-.93-.07-.65,0-1,.5-.54.52-.31a1,1,0,0,1,1.07-.39l1.27.54,1.94,1.41,1.93,1.38,2,1.19L46.15,123l1.83,1,.41.11.77.81.32.33.26.6,0,.47-.17.69-.31.61-.37.56-.35.32-.63.32-.74.2-.89,0-.7-.1-1.46-.52-1.57-.86L41,126.67l-1.11-.62Z"/><path class="b" d="M53.18,159.06l1.87-4.17a2.32,2.32,0,0,0,.64-2,5.39,5.39,0,0,0-.64-1.61c-.47-.94-.93-.92-1.4-1.32-.95-.65-1.48-.26-2.14-.21a7.66,7.66,0,0,0-2.17,1.84l-2.25,5.71-.77,3.36L46,164.53l.74,2.21,1.47,1.1,1.4-.32.78-1.08,1.68-4.52Z"/><path class="b" d="M47.42,170.2l.62-.79.46-.23.58-.11.89.06.74.28.34.79.11.46.34.85.23.9.4,1.51.62,1.56.79,1.87.51,1.47.63,1.14.28.62v.51l-.57.06-1-.46-.85-.56-1.36-1.19-1.08-1.48-1.42-2.15-.62-1.39-.59-1.65-.2-1.22Z"/><path class="b" d="M73.21,175.1l.37-.41.49-.37.6-.4h.93l1.84.55,1.83.56,1.23.37,1.69.49,1.31.26,1.53.37,1.23.38.6.56-.18.3-.56.26-.68.19-.75.11-1,.26-1.35.11-.94,0H79.94l-1.23-.11-1.5-.15-1.16-.22-1.46-.34-.93-.6-.6-.79v-1Z"/><path class="b" d="M68.27,166.69l-.15-1,0-1V164l.15-.74v-.49l0-.45-.19-.78-.63-.94-.53-.56-.93-.38-.6-.37h-.6l-.67.11-.6.38-.9.56-.67,1-.19.71-.22,1.31,0,1.42.19,1.68.26,1.46.38,1.42.71,1.58,1,1.38,1.35,1.66,1.46.81,1.16.75,1.38.37,1,.11.83-.22.41-.52.33-.64.23-.66-.23-1.1-.67-1-1.2-1.5-.86-1.16-.48-.86-.34-.82Z"/><path class="b" d="M146.27,114.54l-1.85-2.36h-.17l-.76-1L141.57,106,140,101.29,148.25,95l-1.49-2.3-1-3.52.05-5.76.95-5.47-3.94-2.26-5.67-4.43-6.06-6.63L127.74,58l-1.25-6.7a33,33,0,0,1,.67-5.37l.58-2.59,1.93,3.52,2.68,4.35,3.44,3.94,3,3.27,3.61,2.93,3.43,2.26,2.41,1.26-.15-4.78-1.84-10-3.1-8-3-7.2,3.35,2.51,5,3.19L151,42.55l3.61,3.61,3,3.85L160.42,54l2.85,6,2.26,8,.67,5.45.17,4.27-.67,6.2-1,3.94-1.34,4.1-1.42,2.43-1.6,1.51-1.42,1.09-1.68,2.93-1,2-2.43,4.61-2.51,3.18-1.68,2L148,113.33l-1,1c-.57-.11-.48-.34-.77.24Z"/><path class="b" d="M146.38,115l3.93-1.27,3.08-1,3.15-.82,1.74-.38,1.4-.26.95.16.79.32.61.51,1.11,1,.57.44.38.73-.06.8-.22.95-.77,1.21-1.08,1-1.08.86-1.71,1.3L157,121.59l-1.77.86-1.91.86-3.9,1.58,3.71.54,4,.61,3.4.38,2.35.38,1.17.57.89.92.51,1.27.38,1.33,0,1.24-.7,1.08-1.3.8-1.59.53-1.93.48-1.85.22-2.31.1-2.64,0-2.16-.19-2.38-.23-.54-.12.95.35,1.5.5,2.92,1.34,2.7,1.84,1.36,1.11,1.37,1.27,1.49,1.71,1.14,1.72.64,1.36.19,1.69-.61,1.27-.76.85-.73.48-.86.48-1,.25-1-.19-1.4-.51-1.21-.57-1.46-.89-1.71-1.08-1.18-.66-1.42-.64-2-.83-1.52-.41-.67-.19,1.05.64,1,.79L149,148l.73,1.05,1,1.62.88,1.84.58,1.53.22.92-.1,1.14-.28,1.37-1,.88-.82.32-.42,0-.79.38-.89.26-1.3-.41-1.14-.83-1.5-1.52-1.3-.89L140.12,154l-1.78-.8L138,153l1-.82,1.52-1.24,1.05-1.18,1.11-1.43.8-1.27,1.58-3.68.73-2.41,1.08-4.61.16-1.46,1-6.82.22-3.27-.13-4.32-.16-1-.16-.25,0-.29-.1-1.07-.7-1.53-.47-.95Z"/><path class="b" d="M173,104.91l-.37.88-.85,1.45-1,1.57-.86,1.1-.92,1.24-.65.71-.53.42-.8.38-.66.09-.88,0-.86-.41-.86-.86-.48-1.19-.06-1.09.48-1.78.89-1,1.74-2.19,2-2.81,1.33-2,.8-1.24.95-.89.68-.44,1-.24,1,.44.68.69.17,1-.17,1.1-.3,1.39-.5,1.48-.3.86-.36.76Z"/><path class="b" d="M176.78,84.44l.11,1,.17,1,0,1.81,0,1.55-.07,1.24-.13,1.55-.09.91-.13.59-.3.54-.37.55-.44.24-.61.26-.67-.09-.72-.26-.46-.54-.26-.48-.17-.55-.05-.48,0-.41.19-.26.4-1.22.52-2,.28-1.33.11-.74.48-1.63.52-1.83.44-1.11.2-.31.26-.15.37.39.26.76.13.61Z"/><path class="b" d="M184.58,104.39l.28.28.24,1,.13.94.11,1.26.07,1.55,0,1,0,1-.17,1.27-.29,1.3-.32,1.31-.29.44-.24.63-.32.52-.53.28-.71.11-.57-.15-.2-.15-.78-.46-.35-.5-.13-.35-.15-.54.15-.92.41-.59,1.05-2.11.65-1.87.74-2.62.48-1.52.33-.89.17-.31Z"/><path class="c" d="M177.09,126.31l1-.91,1.07-.8,1.07-.92.54-.78.5-1,.42-.93.06-.65v-1.05l-.5-.54-.52-.31a1,1,0,0,0-1.07-.39l-1.27.54-2,1.41-1.93,1.38-2,1.19-2.52,1.4-1.83,1-.42.11-.76.81-.33.33-.26.6,0,.46.17.7.3.61.37.56.35.32.64.32.74.2.89,0,.7-.09,1.46-.52,1.56-.86,1.57-.92,1.11-.61Z"/><path class="b" d="M162.9,160,161,155.79a2.29,2.29,0,0,1-.64-2,5,5,0,0,1,.64-1.61c.46-.94.93-.92,1.4-1.32.94-.65,1.47-.26,2.14-.21a7.64,7.64,0,0,1,2.17,1.84l2.25,5.71.77,3.36.34,3.82-.74,2.22-1.48,1.1-1.4-.33-.78-1.07L164,162.82Z"/><path class="b" d="M168.66,171.1l-.63-.79-.45-.23L167,170l-.88.05-.74.29-.34.79-.12.46-.34.85-.22.9-.4,1.51-.62,1.56-.8,1.87-.51,1.47-.62,1.14-.28.62V182l.56.06,1-.46.85-.56,1.36-1.2,1.08-1.47,1.41-2.15.63-1.39.58-1.66.21-1.21Z"/><path class="b" d="M142.87,176l-.38-.41-.48-.37-.6-.4h-.94l-1.83.55-1.83.56-1.24.37-1.68.49-1.31.26-1.53.37-1.24.38-.6.56.19.3.56.26.68.19.74.11,1.05.26,1.35.11.93,0h1.42l1.24-.11,1.5-.15,1.16-.23,1.45-.33.94-.6.6-.79v-1Z"/><path class="b" d="M147.81,167.58l.15-1,0-1v-.71l-.15-.75v-.48l0-.45.18-.79.64-.93.52-.56.94-.38.6-.37h.6l.67.11.6.38.9.56.67,1,.19.71.22,1.31,0,1.42-.18,1.68-.27,1.46-.37,1.42-.71,1.57-1,1.39-1.35,1.66-1.46.81-1.16.75-1.38.37-1,.11-.82-.22-.41-.53-.34-.63-.22-.66.22-1.1.68-1,1.19-1.5.86-1.16.49-.86.34-.82Z"/></svg>