<svg xmlns="http://www.w3.org/2000/svg" width="216.08" height="216.08" viewBox="0 0 216.08 216.08"><defs><style>.a,.c{fill:#da4752;stroke:#da4752;}.a{stroke-linecap:round;stroke-linejoin:round;stroke-width:3px;}.b{fill:#fefefe;stroke:#fefefe;}.b,.c{stroke-width:0.05px;}</style></defs><title>Asset 1</title><path class="a" d="M214.58,108A106.54,106.54,0,1,1,108,1.5,106.54,106.54,0,0,1,214.58,108Z"/><path class="b" d="M108.28,35.25l-4,12.18c-2.78,10.19-4.64,21.3-6.62,32.28-.51,4-.74,7.83-2,12.05l-1.67,9-.39,6.57L93,117.05l0,13.89,1.39,13.47L96,155l3.34,13.06,3.69,8.71,1,2.39,2,1.62-1.67-9.37L100,158.39l-3.35-13.06-1.41-9.19-.52-16.23a117,117,0,0,1,.85-14.6l1.24-11.85,3.53-16.77L104,64l2.94-8.58c1.89-3.52,3.45-7,5.07-10a84.65,84.65,0,0,0-3.66,10.87c-.76,3-1.51,6.08-2,9.37l-2.49,14.71-1.58,13-1.1,9.1-1.52,8.7L99,119.55l.31,9.69.31,8.39.67,8.71,1.34,9.71,2.34,9.71,2.09,5.54,1,2.62,2.42-4.07,3.55-.74,4.17,2.44,6.21,5.08,5.69,2.52h3.69l-2.35-4c-.39-3-1.18-6-.82-9.06.43-6.41.93-12.74,1.9-18.6l1.27,11.93.67,9.37,1.33,10.71a75.74,75.74,0,0,0,8-2.67l6.75-3.27c1.78-4.15,4.16-8,4.69-12.7l1.28-4.46a17.09,17.09,0,0,1,1,6.7l.2,3.94-.2,2.76,5.36-4.69a21.84,21.84,0,0,0,4-6.36,29.06,29.06,0,0,0,2.63-8.76A56.68,56.68,0,0,0,170,137.63l-.36-17.41a130,130,0,0,0-3.07-17.36,126.62,126.62,0,0,0-5.12-15.12,76.57,76.57,0,0,0-7.86-11.84A74.37,74.37,0,0,0,141.4,63.15l-6.28-4.54-5.25-3.27-6.47-3.42-6.67-4.64-5-5.07-2-3.35Z"/><path class="c" d="M119.57,74.8V71.92l-.51-3.29-.83-2.58L117,61.63l-2-4.33-.72-2.37-.82-1.64-.21,3.39v2.68l.31,3,.93,3.6,1.24,3.4,1.84,2.78Z"/><path class="c" d="M133.78,61.47,136,63.8l2.55,2.69,3.2,3.28,2,2.55,1.82,2.26L147,76.76l1.82,2.62,1.16,2.4,1.09,2.33,1,2.41.51,1.82.66,2.18.44,2.26-2.26-3.35-4.66-6L144,79.6,141.35,76,139,72.32l-2.41-4.08-2-3.86Z"/><path class="c" d="M139,92.49l1.38,3.64,1.89,5.24,1.31,4.29,1.68,4,1.45,4.08,1.53,3.49,1.09,2.11L148.7,114,148,106.9l-.65-4.07L146,99.26l-1.38-3.06-1.39-1.31-2.76-2-.81-.29Z"/><path class="c" d="M124.17,92.49l-.08,4.58v4.81l.37,4.66.73,6.33.51,3.28.8,3.57.58-6.34.73-5,.14-3.5-.07-3.35-.36-3.05-.59-2.41-1.09-1.89Z"/><path class="c" d="M115.43,126.85l-1-2.77-.72-4-.66-3.93-.58-3.79-.37-2.18-.58-3.2-.65-2.77-.73,1.53-.8,2.69L109,111l-.07,2.11.07,2.77.66,3.35,1.16,2.84,1.38,2.11,1.24,1.53Z"/><path class="c" d="M137.13,139.16l.65-2.12.44-1.82.29-2.33.22-2,.07-2.26-.15-1.89-.36-2.55-.44-3.06-.8-3.56-.8-1.9-.73,2.26-.43,2.77-.37,3.56V129l.44,3.05.65,3,.59,2Z"/><path class="c" d="M161.81,140.54l.87-4.66.73-8.45-.22-5-.65-5.17-1.61-4.59-1.74-2.84-2-1.74-1.82-.73,1.16,2.33.95,2.62.73,2.91.58,3.5.73,5.53.36,4.15.37,3.5.43,2.91.29,1.53Z"/><path class="c" d="M143.75,165l1.38-1.67,1.32-2,.8-3.64.14-3.78-.36-3.43L146.3,146l-.51-2.62-.36-1.46-.88,2.33-.51,3.28-.43,3.93-.08,3v10.92Z"/><path class="c" d="M110.62,136.17l.51,3.2.66,3.28L113.1,146l1.75,4.37,1.53,3,1.6,3.06,1.24,2.33.87,1.89.58,1.39,1.24,3.06-3.2-3.43-3.94-4.29-2.83-4.44-2.19-3.79L108.66,144l.07-2.18.37-2.33.8-2Z"/><path class="b" d="M101.27,180.23l-5.43-7.57-3.1-7c-2.53-5.46-3.54-11.43-4.56-17.39-2.09-11.35-2.69-22.7-3.27-34L86,98a84.72,84.72,0,0,1,3.55-17.83l4.76-14.94,6.29-16.62L102,43.91l-4.68,3.34-7.74,4.86-9.1,5.33a36.37,36.37,0,0,0-9.3,6.8,84.71,84.71,0,0,0-9.82,12.32,150.22,150.22,0,0,0-7.91,18.16c-1.52,4.85-2.83,9.69-3.84,14.54C48.53,113.13,47.84,119,47,124l-.86,14.3c.28,2.91-.34,5.81,1.08,8.72.15,2.28,2.22,4.56,3.51,6.85l6.1,6.58,2.64,2.43-2.95-5.24-.67-4.54.49-2.73c2.71,3.54,4.29,7,6.35,10.44l4.45,6.51L72.73,173c3.25,1.78,6.6,3.93,9.37,3.75l4.06.58c-.92-3.4-2.58-7.37-1.35-10.77l5.41,8.32,2.47-2.31c1.48,1.62,2.82,4.29,5.46,5.91.27.46,1.31,1.06,3.12,1.78Z"/><path class="c" d="M78.68,70.45l1.85-2.68,1.92-3.36,3-4.52a11,11,0,0,1,2.78-2.78l-2.78.38a8.54,8.54,0,0,0-2.83,1.17,6.17,6.17,0,0,0-1.88,2l-1.44,2.69-1.45,3-2.11,2.41-2.31,2.4-.77,2.11L72.55,75l1.63-.67,2-1.35,1.25-1.34Z"/><path class="c" d="M78.3,113.35l.4-10.11,1.06-10.19.57-4.9,1.06-5.86,1.18-4.7c-1.52.84-2.23,2.15-3.29,3.26L77,86.31,76,91.9l-.29,5.28.48,5.48.58,4.42L78.21,113Z"/><path class="c" d="M65.06,109a16.83,16.83,0,0,0,1.06-4.7,30.1,30.1,0,0,0,.28-6.16V93.53l-.87-5.38-1.06-2.6L62.65,92l-.1,5.29a14.39,14.39,0,0,0,.39,4.61l.48,2.5,1.15,3.33Z"/><path class="c" d="M55,106.58l-.15,3.77-.09,11.92.48,7.5.67,6.15.7,6.88-2.43-5.06a58.25,58.25,0,0,1-2.59-8.26L50.92,123V119.1a28.89,28.89,0,0,1,1-6.06,22.7,22.7,0,0,1,1.73-4.42,6.52,6.52,0,0,1,1.4-2Z"/><path class="c" d="M67.65,124.55A39,39,0,0,1,69,129.81l.78,5.53L70.82,142l.73,2.52L73.12,148l.58,1.73.48,2.11-.08,2.84L73,154.05,72.21,153l-.59-1.84c-.08-1-1.09-2-1.76-3l-2.5-2.88-1.15-2.5-.49-4.23v-3.07l1.45-9.13.19-2.27Z"/></svg>