<svg xmlns="http://www.w3.org/2000/svg" width="216.08" height="219.14" viewBox="0 0 216.08 219.14"><defs><style>.a{fill:#f47039;stroke:#f47039;stroke-width:3px;}.a,.b{stroke-linecap:round;stroke-linejoin:round;}.b{fill:#fff;stroke:#fff;stroke-width:0.05px;}</style></defs><title>Asset 1</title><path class="a" d="M214.58,108A106.54,106.54,0,1,1,108,1.5,106.54,106.54,0,0,1,214.58,108Z"/><path class="b" d="M70,217l7.87-12.76L86,192.55,84.2,191.5l-1.41-1.58-1.41-4,.25-5.63,3.27-10,4-7.73,3.87-5.63.7,4.75.35,9.14-.26,6.85L93,184.12l4.57-4.92,5.63-5.45,3-3-1.59-2.46-.26-3,.62-3.18,1-2.4,2.32-5,4.22-5.8,2.64-3,2.88-3.17,3.48-8.14,3.23-9.38-1.24,5.15-1.93,6.4-2.24,6.34-1.18,8.76L117,158.28l-1.36,4.91,10.75-7.45-1.19-1.56-.43-2.11.37-3.29,2-4.35,5.78-6.78,5.22-4.66,1.74-1.3,4.1-7,3.36-6.84-2.55,6.22L142.37,129l-1.74,3.36L139,139.64l-2.11,6.09-2.36,5.34,11.31-5.28-1.18-1.92-.19-2.37,1.43-3.54,1.86-2.67,3.92-4,3.79-2.79,3.42-2.18.74-.56,2.61-3.48,2.74-3.79,1.61-2.36,1.37-2.36-2.24,4.29-2.8,4.47-2.48,3.73L158.21,132,156,137.15l-2.36,4-1.74,2.37,6.23-2,7.93-2.27.9-.18.52-.07.08-.13-.66-1.37c0-.2,0-.42-.06-.6a4.54,4.54,0,0,1,.23-1.69,8.34,8.34,0,0,1,2.42-3.5,25.76,25.76,0,0,1,4-3.16l2.94-1.87.84-.5,2.5-3.15,1.37-1.8,1.06-1.56L180,123.05l-2.68,3.73-.74,1-1.71,3.42-1.31,2.58-1.77,2.83-1.95,2,3.46-.71,4.28-.71,4-.49,5.83-.65-5.34.8a64.59,64.59,0,0,0-11.29,2.43l4,1,3.42,1.5,1.8.74,3.55.56,5,1.18-5.6-1.06-2.79-.18-3.48.68-5.22.56-3.42-.37-1.8-.81-1.31-1.43-.25-.62a52.77,52.77,0,0,0-8.46,2.73l-6.2,2.68,2.24.31,5.34,1.12L161,149,166,150.7l2.18.19,5,.68,4.1.81,3.11.81-5.34-.87-6-.62-3.23-.07-3.48,1.31-5.47,1.18-5.72.68-3.79-.25-2.48-.74L143,152.38l-1.24-1.8-5.22,2.79-5.16,3.23,4,.07,5.78.87,5.09.93,4.41,1.12,3.73-.13,3.54.07,4.48.37,2.23.12,2.18.31-6.46-.18-10.26.62L146.78,162l-3,1.31L137,165.37l-5.09.68-3.55-.19L126,165.3l-1.67-1.05-1.43-1.56c-3.84,1.42-6.06,4.27-8.46,7l4-.31,4.42-.06,4.22.19,4.35.37,2.42.5,3.17-.5,3.73-.43,3.79-.38,3.3-.25,4.78-.06-4.91.5-7.58,1.06-5.41,1.18-4.66,2.86-5.9,2.92-4.54,1.8-4.72,1.3-4.66.25-2.48-.56-1.62-.68-1-.75c-3.87,3.16-6.66,7.39-9.76,11.31l4-1,5-1,4.72-.68,3.48-.37,3.17-.31,2.86-1L123.1,184l4.42-1.24,4.16-1.06,3.67-.87-4.79,1.55L125.65,184l-5.09,2-4.1,1.8-1.31.68L109,193.77l-4.6,3.6-5.47,3.17-3.85,1.8-2.8.68-2.92.25L87.68,203l-1.24-.43c-4.23,5.31-6.83,10.95-9.44,16.59Z"/><path class="b" d="M40.56,202.7l5.93,3.74,2-10.85,2.68-11.38,3.12-12.53.92.35,2.46.75,3.12,0,2.15-.39,2.2-.75,1.93-1.05L69.87,169l3.25-2.73,3-3.07L79,160l2-2.77,2.11-2.94,3.08-4.79,3.2-5.32,1.85-3.38,1.32-2.59,8.17-7.39,5-4,5.8-4.52,3.34-2.38-2.63,1.63-4.62,3-6.15,4.17-5,3.92-3.2,2.5-1.28,1.23-1,.75-.79.79-5.15,2.33-4.79,2.33L75.45,145,71,147.43l-4.7,2.94L62.8,152.7l-4,3.21,6-17.75h.48l2.33.92,1.76.26,3.86-.39,3.7-1.54,3.33-2.24,3.26-2.81,4-4.49,5.27-7.33L95.66,116l1.76-2.82,1.89-3.6,7.51-6.94L111,99.09l4-3.2L119,93l1.45-1-3,1.89L112,97.42l-4,2.82-4.26,3.07-3.65,3-1.76,1.49-5.49,2.42-5.27,2.5-3.91,2.07-3.12,1.71-5.36,3.3-4.31,3.12-.09-.48,5.85-13.49,2.11,1,3,.49,4.27-1,3.12-1.49,2.59-2,2.59-2.33,2.9-3,3-3.87L103,93l2.68-4,2.59-4.4L113,80.51l4.3-3.39,3.52-2.59L123.08,73l2.07-1.28,2.55-1.75-2.86,1.62-3.21,1.94-3.2,2-3.74,2.33-4.22,3.12-3.21,2.33-7.9,3.21L93.6,89.07l-5.71,3-4.84,3.16L91,80.15l1.19,1,2.06.79,2.11.18,2.42-.4,2.94-1.36,3.61-2.55L110,72.64l4.22-6,2.68-4.48,2.07-3.6,3.38-3.17L126.55,52l2.86-2.2,2.37-1.8,3.25-2.2-2.9,1.76-3.29,2-2.86,2-4.22,3-2.68,2.11-1.53,1.27-5,2.2-4.79,2.24-5.19,2.95-3.25,2.06-1.67,1.23L106,55.46l.84.75,1.58,1,2.33.31,2.42-.31,2.63-1,3.83-2.64,3.73-3.6,2.15-2.51,3.61-4.74,2.06-3.21.4-.48,2.28-1.94,3.56-2.5,3.21-2.2,2.46-1.58,2.06-1.41,1.37-.79-2,1-3.21,1.58-2.77,1.54-2.81,1.76-2,1.4-1.32.88-1.76,1.19-3.78,1.32-4.74,1.89-4.22,2L114.43,45l-2.33,1.45,11.77-15.6L125.5,29l-3.08,1.81L111.31,43.86l.08-5.49-.92-5.28-1.27-4.78L108,24.17l-1.89-5.05-.57-6.06-.39-3.47-.93-4.88-.74-3.56.39,3.12.48,4,.27,4.4.26,6L103.66,22l-.88,4.18-1.14,5.53L101.16,36l.08,4.66,1,3.73,1.49,2.46,1.62,1.45,1.45.62.66.26L95.84,65.65l-.35-5.49-1.1-4.79L93.25,51.2l-1.63-4.26-1.8-4.53L88.33,39l-.75-1.45-.88-5.36L85.82,28,85,24.26,84.15,21,83,17.19l.87,3.73.84,4.75.83,5.58.49,6,.09.92L85,43.07l-.79,4.35-.71,5.84v7.61l.57,3.51,1.37,3.69,2.15,2.77,1.54.83,1.1.62.79.18.57.08L81.87,89.16l-.35-4-.8-3.91-1.4-5.45-1.58-5.05-1.63-4.44-1.36-3.52L73.61,60l-.75-6.37-.79-4.53-.84-4.26-1-4.57L69,35.64l.75,4.22.87,5.41L71.06,50l.44,5.27.26,3.65-1.23,4.48L69.3,68.69,68.51,73,67.81,79l-.18,4.66.44,4.61L69,91.93l1.89,3.52,1.76,1.84,1.67,1,1.23.49,1.1.35L70,112.71l-2-7.86L65.3,97.2l-1.93-4.79-2-4.61-1-2.11L60,84.9l-.92-5.32-1.62-7.64-.88-3.69-.79-3.08L55,62.62l-.75-2.46-.48-1.71,1,4.3,1.31,6.07L57,74.49,57.61,79l.57,5.14-1,3.87-1.06,5.58-1,5.8-.58,6.5v6.81l.62,4.57,1.49,5.23,1.37,2.37,1.53,1.89,1.45,1.14,1.15.71L63,129,58.27,141.1,57,135.65l-2-6.33-1.93-5.27L51,118.82l-2.81-6.06-1.63-3.43-.83-4.61-1.14-5.28-.93-4-1.36-5.1-1.67-5.63-1.32-4.08,1.19,4.48,1.58,7.12,1.32,7.12.92,7.12.35,3-1.18,5.75-1.06,5.54-1,7.25-.44,7.65.26,5.22.4,3.83,1,4.44,1.71,3.95,1.81,2.5,2.46,2.2,2.37.92,1,.36-3.26,11-3.07,10.68L43,192.25Z"/></svg>