<svg xmlns="http://www.w3.org/2000/svg" width="216.08" height="216.08" viewBox="0 0 216.08 216.08"><defs><style>.a,.c,.d{fill:#f68d2f;stroke:#f68d2f;}.a{stroke-linecap:round;stroke-width:3px;}.a,.d{stroke-linejoin:round;}.b{fill:#fefefe;stroke:#fefefe;}.b,.c,.d{stroke-width:0.05px;}</style></defs><title>Asset 1</title><path class="a" d="M214.58,108A106.54,106.54,0,1,1,108,1.5,106.54,106.54,0,0,1,214.58,108Z"/><path class="b" d="M23.35,105.32l2.53-11.19,2.74-8.44c1.36-2.92,2.45-6.22,4.86-9.84l4.66-6c1.24-1.75,3.34-3.29,5.26-4.87l6.12-2.54a17.61,17.61,0,0,1,6.78.23,27.92,27.92,0,0,1,5.46,2.1,36,36,0,0,1,6.12,4l5.7,6.12a43.19,43.19,0,0,1,5.91,8.23l3.37,5.7,3,6.75L89,104.47l2.11,9.08.64,5.49v5.69L90.88,130l-1,5.07-1.48,4.64L85,145.63l-3.58,4L77,153.44l-5.27,3.37-7,1.84c-3.22.7-5.49.22-7.6.7l-8.87-.85-8.23-4-6.33-4.43a77.46,77.46,0,0,1-6.75-9.92l-3.17-8-1.06-5.91-.21-9,.43-6Z"/><path class="c" d="M43.39,95.67l1.81-5.85,2.37-4.6,3.62-4.45L55,78.33,56.06,77l.42-2.71c-.09-.63-.75-1.45-1.95-2.44l-1.67-.7H51.05l-3.62,2.51-2.09,2-2.09,1.95-2.51,3.2-1.67,3.06L38,86.9l-1.39,3.62-1,3.89-.41,2.79v1l1.25,1.26L38,100.54l2.44.28,2.15-1.39L43,97.69Z"/><path class="b" d="M148.24,95.45l11.36,1.61,8.63,2c3,1.12,6.4,1.94,10.21,4l6.32,4.16c1.85,1.11,3.55,3.07,5.29,4.85l3,5.9a17.72,17.72,0,0,1,.33,6.77,29.39,29.39,0,0,1-1.65,5.62,36.49,36.49,0,0,1-3.5,6.42l-5.64,6.18a43,43,0,0,1-7.73,6.55l-5.4,3.83L163,156.92l-8.58,3.88-8.88,2.84-5.42,1.07-5.67.47-5.33-.42-5.14-.64L119.23,163l-6.17-2.89-4.28-3.25-4.15-4.11-3.79-5L98.45,141c-1-3.16-.68-5.46-1.32-7.53l.12-8.9,3.33-8.53,3.91-6.67a77.45,77.45,0,0,1,9.34-7.53L121.56,98l5.81-1.53,9-1,6,0Z"/><path class="c" d="M159.49,114.64l6,1.33,4.77,2L175,121.2l2.73,3.55,1.41,1,2.74.19c.61-.13,1.38-.86,2.27-2.14l.56-1.72-.15-1.8-2.79-3.41L179.63,115,177.52,113l-3.4-2.23-3.19-1.42-3.14-.86-3.72-1.1-4-.65-2.8-.19-1,.08L155.18,108l-1,1.61-.08,2.46,1.56,2,1.78.35Z"/><path class="b" d="M80.69,70.11a75.85,75.85,0,0,1,7.46-16c3.64-5.73,7.28-11.4,11.15-15.72,3.29-3.54,6.84-6.74,11.52-8.43a15.88,15.88,0,0,1,9-2.12c3.56.72,7,2.86,10.07,5a31.66,31.66,0,0,1,6.42,7.58c2.5,4.56,5,9.13,6.33,13.69l3,11.31c.68,4.39,1.37,10.1,2.06,16.15v6l-8.32-.71c-4.53,0-9.28-.17-12.43.49-5.33.17-9.52,2.34-13.94,4.09l-7.29,4.8-7.17,6.34L93,89.07A74.52,74.52,0,0,0,88,80c-2.13-2.91-4.07-5.6-7.34-9.89Z"/><path class="d" d="M106.86,59.87l2.49-5.59,2.9-4.28,4.12-4,4-2,1.26-1.18.74-2.65c0-.63-.58-1.52-1.65-2.65l-1.57-.89-1.8-.21-3.89,2-2.31,1.69-2.3,1.69L106,44.77l-2,2.84-1.47,2.91L100.7,54,99.27,57.7l-.75,2.72-.12,1,1.1,1.4,1.39,1.29,2.38.56,2.31-1.12.69-1.67Z"/></svg>