<svg xmlns="http://www.w3.org/2000/svg" width="228.26" height="228.26" viewBox="0 0 228.26 228.26"><defs><style>.a,.c,.d{fill:#6d351e;stroke:#6d351e;}.a,.b,.d{stroke-linecap:round;}.a,.b,.c,.d{stroke-linejoin:round;}.a{stroke-width:0.4px;}.b{fill:#fff;stroke:#fff;}.b,.c,.d{stroke-width:0.05px;}</style></defs><title>Asset 1</title><path class="a" d="M228.06,114.13A113.93,113.93,0,1,1,114.13.2,113.93,113.93,0,0,1,228.06,114.13Z"/><path class="b" d="M126.24,47.73l11.85-4,8.71-2.26,5.58.17,4.18,1.4,3.49,3.31.35,4-.7,2.78-3,2.44-5.06,2.62L148,60.45l-2.09,2.79-1.39,5.93-1,4.88,1,7.49,3.83,5,5.23,7.32,5.75,12.38,2.44,8,2.27,14.12.69,9.93-.52,9.59-1.92,10.45-3.13,7.5-3.66,6.27-4.18,6.8-4,4-4.88,2.78-8.89,1.05-24-.35-7.67-.7-3.66-.87-3-1.91-3.83-4.19-8.19-12.2-3.14-8.71L78,150l-.35-7.84.17-3.31L75.18,135l-3.83-7-3.49-7.14-3.14-10.81L63.5,104l.87-8.71,1.57-8.54,3.31-7,6.45-7.15L82.32,69l7.15-2.44-3-5.92-.87-4.36.69-3,3.84-2.79,7.66-2.27L106,47H118.4l3.66.53-.7.35-3.14.87H114l-5.05.35-7.15.69-5.4,1.75L93.3,53.31l.88,1.74,3.48.87,5.23.7,2.26-.17L110,54.7l8.19-3.48,5.93-2.62Z"/><path class="c" d="M78.23,125l1.31-8.19,2.7-9.24,3.31-8.45,3-5.49L91,89.82l.78-1.4L93,85.2l.27-5.32-.61-3.65-.79-1-1.22-.61-1,.35-5,2.78L81,80.41l-5,5.14L73.44,90l-1.83,5.58-.53,5.84.61,5.75,1,5.31,1.66,4.88L76.14,121Z"/><path class="d" d="M100.62,67.25l2.36-.78,2.61-.09,1.57.35.87,1.83.35,2.79v5.48l-.18,5-.78,4.88-1.57,3.84-1,1.91-1.39,2.79-1.66,2.7-2.61,4.27-1.74,4.1-3,6.62L92.43,119,91,122.41l-1.14,2.78-1.13.61-1-.17-.61-.44-.34-1.74,1.56-8.36,2.09-6.19,3-8,3-5.66,2.52-4.88,1.75-3.92.52-3.22-.87-7.15L100,71l-.08-2Z"/></svg>