<?xml version="1.0"?>
<svg xmlns="http://www.w3.org/2000/svg" xmlns:xlink="http://www.w3.org/1999/xlink" version="1.1" id="Capa_1" x="0px" y="0px" viewBox="0 0 512.003 512.003" style="enable-background:new 0 0 512.003 512.003;" xml:space="preserve" width="512px" height="512px" class=""><g><g>
	<g>
		<g>
			<circle cx="256.012" cy="46.612" r="8.645" data-original="#000000" class="active-path" data-old_color="#fafafa" fill="#fafafa"/>
			<circle cx="460.956" cy="382.203" r="7.431" data-original="#000000" class="active-path" data-old_color="#fafafa" fill="#fafafa"/>
			<path d="M429.166,315.316v-0.003c44.165,0,80.097-35.932,80.097-80.098v-33.788c0-44.165-35.932-80.097-80.097-80.097h-28.805     c-19.971,0-38.471-9.945-49.487-26.604c-1.339-2.026-2.774-4.005-4.26-5.951c1.034-1.018,1.938-2.184,2.663-3.487     c2.726-4.895,2.587-10.896-0.363-15.659l-7.613-12.292c-7.919-12.786-21.626-20.42-36.665-20.42h-3.034     C297.127,15.853,278.389,0,256.012,0c-22.377,0-41.115,15.853-45.59,36.916h-34.381c-12.738,0-24.755,5.585-32.969,15.324     l-13.124,15.562c-3.921,4.649-4.765,10.964-2.201,16.479c0.463,0.996,1.021,1.922,1.655,2.774     c-17.471,20.771-27.001,46.794-27.001,74.202v49.645c0,32.728,15.183,62.428,39.387,81.721     c-10.082,16.021-15.572,34.088-16.018,52.793c-24.712,17.399-62.171,24.669-101.147,19.467     c-9.186-1.232-17.489,3.786-20.664,12.474C0.813,385.962,3.896,395.061,11.63,400c48.23,30.792,108.054,37.361,155.192,39.506     c1.166,0.564,2.358,1.111,3.58,1.637c0.535,14.656,0.595,30.417,0.105,36.787c-1.338,17.396,11.727,32.637,29.118,33.976     c0.81,0.063,1.637,0.095,2.457,0.095c16.416-0.001,30.262-12.835,31.521-29.214c0.152-1.964,0.528-14.931,0.351-30.375     c3.087,0.08,6.247,0.122,9.488,0.122c5.139,0,10.072-0.106,14.824-0.307c0.221,11.086,0.153,21.062-0.204,25.705     c-1.338,17.396,11.726,32.637,29.118,33.976c0.811,0.063,1.637,0.095,2.457,0.095c9.891-0.001,19.349-4.739,25.301-12.673     c2.486-3.313,1.814-8.015-1.499-10.501c-3.314-2.484-8.014-1.814-10.5,1.499c-3.135,4.179-8.108,6.674-13.303,6.675     c-0.434,0-0.871-0.017-1.302-0.05c-9.149-0.705-16.02-8.721-15.317-17.87c0.453-5.89,0.45-17.276,0.229-27.887     c12.552-1.234,23.551-3.335,33.128-6.333c0.126,5.242,0.187,10.802,0.179,16.642c-0.005,4.142,3.348,7.504,7.49,7.51h0.01     c4.138,0,7.495-3.352,7.5-7.49c0.011-8.07-0.107-15.635-0.346-22.583c8.729-4.383,15.853-9.854,21.509-16.471     c6.895-8.068,11.23-17.438,13.949-27.512c2.339,0.247,4.686,0.376,7.025,0.376c16.633-0.003,31.066-6.121,40.639-17.228     c3.847-4.464,5.817-10.099,5.606-15.955c4.854,0.684,9.567,2.232,13.931,4.6l1.384,0.751c-1.875,4.535-2.915,9.498-2.915,14.702     c0,21.294,17.324,38.617,38.617,38.617c21.293,0,38.617-17.323,38.617-38.617c0-21.293-17.323-38.616-38.617-38.616     c-10.675,0-20.351,4.355-27.348,11.381l-2.585-1.402c-8.527-4.627-18.026-6.946-27.68-6.804c-0.46-0.469-0.932-0.93-1.436-1.364     c-4.672-4.027-10.626-6.006-16.777-5.567c3.754-7.793,5.752-15.98,5.977-24.517H429.166z M460.956,358.586     c13.022,0,23.617,10.594,23.617,23.616c0,13.023-10.594,23.617-23.617,23.617c-13.022,0-23.617-10.595-23.617-23.617     C437.339,369.18,447.933,358.586,460.956,358.586z M302.312,51.916h2.323c9.809,0,18.748,4.979,23.913,13.318l7.613,12.292     c0.063,0.102,0.142,0.228,0.011,0.462c-0.13,0.234-0.279,0.234-0.399,0.234h-45.548     C296.782,71.132,301.163,62.009,302.312,51.916z M256.012,15c17.431,0,31.611,14.181,31.611,31.611     c0,17.431-14.181,31.611-31.611,31.611s-31.611-14.181-31.611-31.611C224.4,29.181,238.581,15,256.012,15z M141.415,77.472     l13.124-15.562c5.357-6.352,13.194-9.994,21.502-9.994h33.671c1.149,10.093,5.53,19.216,12.087,26.307h-80.033     c-0.001,0-0.001,0-0.002,0c-0.062-0.008-0.124-0.019-0.186-0.025c-0.08-0.028-0.157-0.089-0.226-0.239     C141.227,77.694,141.318,77.587,141.415,77.472z M19.703,387.357c-2.419-1.544-2.076-3.701-1.656-4.85     c0.353-0.966,1.507-3.165,4.591-2.757c38.491,5.141,75.972-1.087,103.327-16.721c0.84,21.842,4.374,43.256,18.203,59.437     c0.188,0.22,0.387,0.432,0.579,0.65C104.057,419.859,57.643,411.579,19.703,387.357z M218.649,481.634     c-0.663,8.616-7.939,15.365-16.566,15.366c-0.435,0-0.871-0.017-1.302-0.05c-9.15-0.705-16.021-8.721-15.317-17.87     c0.511-6.638,0.46-20.201,0.111-32.753c9.734,2.599,20.824,4.363,33.372,5.325C219.15,467.402,218.75,480.315,218.649,481.634z      M355.873,315.313h20.226c-0.409,11.79-5.28,22.588-14.804,32.77c-0.043-0.004-0.086-0.011-0.129-0.016c0-0.06,0-0.12,0-0.179     C361.167,336.721,359.388,325.807,355.873,315.313z M394.931,362.332c0.001,0.009,0.003,0.017,0.003,0.026     c0.162,2.182-0.536,4.297-1.964,5.954c-9.012,10.456-22.212,12.02-29.278,12.021c-1.377,0-2.759-0.075-4.139-0.186     c0.703-5.36,1.108-10.828,1.336-16.326c1.378,0.113,2.756,0.163,4.084,0.124c1.23-0.036,2.396-0.16,3.531-0.325     c4.426,0.146,8.87,0.052,13.318-0.288L394.931,362.332z M383.364,300.314v-0.001c-0.021,0-0.042,0-0.063,0H258.748     c-23.397-19.155-42.649-42.292-57.227-68.837l-22.844-41.598c6.303-5.782,10.263-14.081,10.263-23.289     c0-17.429-14.18-31.608-31.609-31.608c-17.429,0-31.609,14.18-31.609,31.608c0,17.43,14.18,31.609,31.609,31.609     c2.838,0,5.587-0.382,8.206-1.087l22.837,41.585c12.669,23.069,28.661,43.716,47.657,61.616h-11.708c-4.142,0-7.5,3.357-7.5,7.5     s3.358,7.5,7.5,7.5h29.158c2.105,1.65,4.232,3.264,6.381,4.841c-2.262,1.098-4.388,2.562-6.263,4.437     c-6.978,6.982-16.177,10.603-19.651,11.971l-0.458,0.181c-3.017,1.193-5.695,2.961-7.961,5.253     c-2.912,2.946-2.884,7.695,0.063,10.607c2.947,2.913,7.695,2.885,10.606-0.063c0.794-0.803,1.739-1.425,2.808-1.848l0.448-0.177     c4.258-1.676,15.568-6.128,24.755-15.32c3.194-3.195,8.391-3.196,11.586-0.003c1.547,1.546,2.4,3.603,2.401,5.791     c0.001,2.189-0.851,4.246-2.397,5.794c-11.605,11.611-25.71,17.161-30.361,18.991l-0.401,0.159     c-0.617,0.243-1.254,0.412-1.895,0.501c-4.102,0.571-6.965,4.36-6.394,8.463c0.522,3.752,3.735,6.467,7.419,6.467     c0.344,0,0.693-0.023,1.044-0.072c1.818-0.254,3.614-0.727,5.344-1.41l0.393-0.155c5.354-2.107,21.648-8.518,35.462-22.34     c4.379-4.382,6.789-10.207,6.787-16.401c0-0.05-0.007-0.099-0.007-0.15c14.58,7.516,29.906,13.586,45.875,18.157     c2.289,0.655,4.59,1.235,6.902,1.753c-0.789,22.727-4.172,39.725-14.649,51.984c-5.017,5.87-11.656,10.65-20.082,14.394     c-0.456,0.146-0.89,0.333-1.303,0.558c-11.489,4.856-26.185,7.864-44.491,9.141c-0.035,0.001-0.069-0.003-0.104-0.001     c-0.226,0.007-0.448,0.028-0.669,0.054c-6.606,0.441-13.667,0.663-21.224,0.663c-5.756,0-11.227-0.127-16.429-0.382     c-0.164-0.016-0.33-0.022-0.497-0.027c-18.467-0.937-33.472-3.51-45.395-7.819c-0.519-0.267-1.071-0.475-1.65-0.613     c-2.388-0.918-4.648-1.908-6.781-2.973c-0.339-0.211-0.698-0.392-1.071-0.547c-6.541-3.412-11.863-7.549-16.05-12.447     c-12.366-14.469-14.85-35.535-14.85-64.835c0-16.536,4.629-32.573,13.442-46.783c10.125,5.914,21.377,10.201,33.445,12.445     c0.464,0.086,0.925,0.127,1.38,0.127c3.543,0,6.694-2.52,7.365-6.13c0.757-4.072-1.93-7.987-6.002-8.745     c-12.417-2.309-23.822-7.146-33.755-13.895c-0.05-0.038-0.094-0.08-0.145-0.117c-0.19-0.138-0.385-0.263-0.583-0.382     c-23.464-16.286-38.468-43.396-38.468-73.505v-49.645c0-25.402,9.409-49.434,26.554-68.035h186.957     c2.703,3.112,5.207,6.384,7.45,9.776c13.801,20.871,36.978,33.331,61.999,33.331h28.805c35.895,0,65.097,29.202,65.097,65.097     v33.788c0,35.895-29.203,65.098-65.097,65.098H383.364z M346.128,345.334c-0.98-0.251-1.962-0.492-2.937-0.771     c-22.854-6.54-44.3-16.355-64.01-29.251h60.722C343.745,324.93,345.833,334.998,346.128,345.334z M154.926,177.792l2.954,5.378     c-0.184,0.006-0.364,0.028-0.549,0.028c-9.158,0-16.609-7.451-16.609-16.609c0-9.158,7.451-16.608,16.609-16.608     c9.158,0,16.609,7.45,16.609,16.608c0,3.474-1.076,6.7-2.907,9.369l-2.958-5.387c-1.993-3.63-6.551-4.958-10.184-2.964     C154.259,169.602,152.932,174.161,154.926,177.792z" data-original="#000000" class="active-path" data-old_color="#fafafa" fill="#fafafa"/>
			<circle cx="391.119" cy="166.75" r="7.431" data-original="#000000" class="active-path" data-old_color="#fafafa" fill="#fafafa"/>
			<circle cx="438.477" cy="166.751" r="7.431" data-original="#000000" class="active-path" data-old_color="#fafafa" fill="#fafafa"/>
			<path d="M216.9,96.986c-4.142,0-7.5,3.358-7.5,7.5v9.334c0,4.143,3.358,7.5,7.5,7.5c4.142,0,7.5-3.357,7.5-7.5v-9.334     C224.4,100.344,221.042,96.986,216.9,96.986z" data-original="#000000" class="active-path" data-old_color="#fafafa" fill="#fafafa"/>
			<path d="M295.123,96.986c-4.142,0-7.5,3.358-7.5,7.5v9.334c0,4.143,3.358,7.5,7.5,7.5c4.142,0,7.5-3.357,7.5-7.5v-9.334     C302.623,100.344,299.265,96.986,295.123,96.986z" data-original="#000000" class="active-path" data-old_color="#fafafa" fill="#fafafa"/>
			<path d="M435.276,252.419c2.722-3.123,2.396-7.86-0.726-10.582c-3.123-2.721-7.861-2.396-10.582,0.727     c-2.316,2.657-5.658,4.181-9.17,4.181c-3.512,0-6.854-1.523-9.17-4.181c-2.722-3.122-7.46-3.447-10.582-0.727     c-3.123,2.722-3.448,7.459-0.726,10.582c5.165,5.927,12.629,9.325,20.478,9.325C422.647,261.744,430.111,258.346,435.276,252.419     z" data-original="#000000" class="active-path" data-old_color="#fafafa" fill="#fafafa"/>
		</g>
	</g>
</g></g> </svg>
