<svg xmlns="http://www.w3.org/2000/svg" width="216.08" height="216.08" viewBox="0 0 216.08 216.08"><defs><style>.a,.c{fill:#4dc4d5;stroke:#4dc4d5;}.a,.b,.c{stroke-linecap:round;stroke-linejoin:round;}.a{stroke-width:3px;}.b{fill:#f9f9f9;stroke:#f9f9f9;}.b,.c{stroke-width:0.05px;}</style></defs><title>Asset 1</title><path class="a" d="M214.58,108A106.54,106.54,0,1,1,108,1.5,106.54,106.54,0,0,1,214.58,108Z"/><path class="b" d="M89.34,35.29l-5.92.87a14.49,14.49,0,0,0-7.07,3.66L71,44.18l-4.53,4-5.77,2.69L55,52.2l-7.15,1.74-5.75,5.4L38.63,66,35,73.46c-.88,1.23-2.8,2.29-5.45,3.23a18.79,18.79,0,0,0-5.27,4A10.63,10.63,0,0,0,21.76,88l.52,5.66,1.09,4.2c-1.07,1.44-.21,4,.1,6.32a28.87,28.87,0,0,0,3.07,10.45c2.24,4.45,6.33,8.9,10,13.34l11.68,11.21,13.46,11.35,10.28,7.15-1.74,4-4,6.1a7.74,7.74,0,0,0-1.39,4.88,8.84,8.84,0,0,0,3.14,6.79,22.21,22.21,0,0,0,9.76,1.22h64.48l5.4-2.09a4.92,4.92,0,0,0,3.13-4.53,8.83,8.83,0,0,0-.52-4.88c0-4.15-4.41-7.67-6.62-11.5,5-3,10.3-5.54,14.45-10.25l15.35-13.45L184,123.3l4.88-7.5,2.61-6.27,1.25-5.94.15-3.82V98l.22-4.32c.47-.94.71-4.16,1.17-6,.38-2.09-.86-4.19-1.91-6.28l-2.1-3-4.94-2.23-4.47-2.82-1.6-2.93c.35-1.66-2-4.39-2.75-6.31s-3.22-5.11-5.41-8l-3.65-2.48-7.5-2.4-5.75-1.39-6.62-3.14-5.75-5.22c-1-1.63-4.74-3.26-7.67-4.88l-4-1.4H123.5l-9.41,2.27-4,.35-6.66,0-7.11-1.71Z"/><path class="c" d="M47,80.2l-1.18,1.18-1.25,1.34-1,.86-1.25.94-1.5.79L39.42,86,82.8,130Z"/><path class="c" d="M77.62,55.91l-1.26,1-1.18,1-1.26.78-1.18.71-.39.08-.79.31-1.41.95-1.34.31,27.51,66.18Z"/><path class="c" d="M106.23,48.92l1.57.47,1.1.08h.86l1.5-.08,1.41.08,1.49-.08.79-.08,1-.23h.4l-5.27,80.33Z"/><path class="c" d="M144.82,55.91l1.41,1.18,1.1.95,1.34.78,1.26.47.31.16.87.79,1.1.47,1.41.63L126,127.6Z"/><path class="c" d="M175.63,80.12l1.1,1.18,1,1.34,1.65,1.26,1.81,1.1,1.81.94-43.7,44.49Z"/></svg>