<svg xmlns="http://www.w3.org/2000/svg" width="228.26" height="228.26" viewBox="0 0 228.26 228.26"><defs><style>.a,.d{fill:#c09328;stroke:#c09328;}.a,.b,.c,.d,.e{stroke-linecap:round;stroke-linejoin:round;}.a{stroke-width:0.4px;}.b{fill-opacity:0;stroke:#000;stroke-opacity:0;}.b,.c,.d,.e{stroke-width:0.05px;}.c{fill:#fff;stroke:#fff;}.e{fill:#fefefe;stroke:#fefefe;}</style></defs><title>Asset 1</title><path class="a" d="M228.06,114.13A113.93,113.93,0,1,1,114.13.2,113.93,113.93,0,0,1,228.06,114.13Z"/><path class="b" d="M99.77,50.34l42.17,42.17,53.8-54.29L185.56,28,172.23,17.87,160.6,11.08l-8-3.88-7.75-1.94Z"/><path class="c" d="M179.59,177.68a26.28,26.28,0,0,0-1.89-4.78L175,170.31l-4.63-3.09L164.68,165l-8.06-2.23-6.68-1.2-8.91-.69-5.49.35-6.68,2.4-7.54,2.74-5.83,1-9.25.17-7-.86-7.36-1.2-7.2-1L78.31,164l-7.54-.86-7.37.34-.69-2-1-4.63.51-3.43.86-1.2,5.14-3.25,4.8-4.46,2.22-3.25.18-4.46-.35-4.28-.68-3.09-1-2.74v-2.74L75.22,122l3.09-1.2,3.08-1.71,2.4-2.4,2.06-3.25,1-3.43,1.2-2.23-.35-1.88-2.4-2.23H83.11l-1.72,1L80,107.59l-1.2,3.26-1.37,2.22-3.25,1.55-3.77,1.54-2.58,2.74-1.71,3.43-.17,3.6,1,4.28.85,4.28.69,3.26-.69,1.88L64.77,142l-2.57,2.06-2.91,2.06-2.06,1.71-1.71,3.08-1,4.63.34,5,.69,2.74.51,2.57-3.94,1.55-3.94,3.08-2.06,3.09-1,4.28,1.2,4.63,3.94,4.45,6,5.49L62,195.67l7.37,2.74,7,1.55,11.14,1.19,12,.69,13.88,1.2,12.34-.34,12-1L147.2,200l8.74-2.4,9.08-3.95,6.85-3.94,5-4.62,2.4-3.77.37-3.52"/><path class="d" d="M145.21,191.57l4.61-.85,3.51-1,4.54-1.88,3-1.63,2.3-1.4,1.88-1.39,2.12-1.88,1.58-2.18,1.27-2.6.49-2.13.06-1.45-.06-.6.9,1.21.67,1.63.24,1.34-.18,1.57-.3,1.21-.61,1.21-.91,1.4-1,1.15-1.76,1.33-1.82,1.46-1.94,1.27L161.33,189l-1.58.91-1.76.79-1.93.61-1.94.66-1.82.18-2.06.13-2.06-.19-1.33-.12Z"/><path class="e" d="M92.38,97.84,106,77.24,95.29,66.94l7.27-7.27,30.17,30.05L125.46,97,114.8,86.45,95,100.14Z"/><path class="c" d="M100,50.1l42.66,42.65,56-56.83c-3.93-5.23-9.29-9.5-15.15-13.45-1.92-2.13-6.18-4.59-10.3-7-3.24-3.75-7.62-5.93-13.93-7.75-1.59-1.94-7.4-2.62-13.45-4.24Z"/></svg>