<svg xmlns="http://www.w3.org/2000/svg" width="216.08" height="216.08" viewBox="0 0 216.08 216.08"><defs><style>.a,.c{fill:#28429d;stroke:#28429d;}.a{stroke-linecap:round;stroke-linejoin:round;stroke-width:3px;}.b{fill:#c3ead8;stroke:#c3ead8;}.b,.c{stroke-width:0.05px;}</style></defs><title>Asset 1</title><path class="a" d="M214.58,108A106.54,106.54,0,1,1,108,1.5,106.54,106.54,0,0,1,214.58,108Z"/><path class="b" d="M26.13,117.63l7.11-3.34-8.38-6.8A38.85,38.85,0,0,1,28.59,102c3.18-3.75,5.75-7.54,10.09-11.22,3.5-2.75,6.87-5.64,11.11-7.57A79.68,79.68,0,0,1,60,79c5.08-1.37,11-2.72,18.16-4,2.65-.82,5.55-1.34,7.86-2.57l4.38-5.53a72.79,72.79,0,0,1,8-6.29c2.75-1.23,4.57-2.7,9.89-3.27a10.43,10.43,0,0,1,5.78.62c1.23.62,2.28,1.39,2.42,2.79a13.39,13.39,0,0,1-1.84,5.12L109.88,74c-.5,1.16-1.38,1.94-1.47,3.51,4.16,1.29,8.31,2.49,12.46,4.23a69.49,69.49,0,0,1,10.31,4.43,70.16,70.16,0,0,1,9.13,4.49c4.45,2.57,8,5.13,11.82,7.7l4.53,3.85a31.28,31.28,0,0,1,7.94-8.72c3-2,5.76-4.12,10-5.69,3.42-.81,6.45-1.89,11.06-1.88,1.78.08,4.94.11,5.52,1.46l-4.85,3.91a63.32,63.32,0,0,0-6.12,6.35,43.65,43.65,0,0,0-4.29,8c-.57,2.18-1.36,4.35-1,6.53,0,2.39,1.73,5.41,2.91,8.23l6.09,7.44,7.27,6.36c-1.28,2.07-1.09,1.51-4.43,3.16a19.64,19.64,0,0,1-7.67.29l-6.33-2.28c-2.43-1.76-5.31-3.41-6.77-5.24l-6.06-6.1-3.42-4.23a28.43,28.43,0,0,1-4.77,5.52,84.21,84.21,0,0,1-8.17,5.93l-6.52,3.38-7.24,3.19c-5.47,2.24-11,4.16-16.55,6l-7.15,2.1a3.68,3.68,0,0,0,1.73,3.38l5,3.64,4.07,3.59c-1.34,1.12-3.27,1.55-5,2.15a20.78,20.78,0,0,1-5.79.11,20.45,20.45,0,0,1-7.93-4.15l-3.3-3.1-3.12-4.08a25.26,25.26,0,0,0-6.1-1.72l-12.81-1.51a86.05,86.05,0,0,1-18.45-3.16,62.6,62.6,0,0,1-13.54-7,98.83,98.83,0,0,1-9.09-8.58Z"/><path class="c" d="M67.29,100.73a6.57,6.57,0,1,1-6.57-6.57A6.57,6.57,0,0,1,67.29,100.73Z"/><path class="c" d="M73.17,139.19,77,135.78l4.7-5.85,3.36-6.57a23.31,23.31,0,0,0,2.1-6.86l.58-5.59a45.23,45.23,0,0,0-2.9-16.44l-3.28-6.93-3.94-6.06-1.17-1.89L79.26,82l4.56,4.72L86,89.64l3.1,5.56,1.61,4.52,1,3.51.58,3.28.15,4.45-.29,4.3-1,4.45-1.19,3.87-2.24,3.65-1.9,2.55-2.57,2.85-4.06,3.08-4.09,2.75Z"/></svg>