<?xml version="1.0"?>
<svg xmlns="http://www.w3.org/2000/svg" xmlns:xlink="http://www.w3.org/1999/xlink" version="1.1" id="Capa_1" x="0px" y="0px" width="512px" height="512px" viewBox="0 0 386.6 386.6" style="enable-background:new 0 0 386.6 386.6;" xml:space="preserve" class=""><g><g>
	<g>
		<path d="M385.773,118.101v-0.612c-31.824-52.02-107.712-77.112-143.82-16.524c-2.448-2.448-4.896-4.284-7.344-6.12    c-20.809-13.464-50.184-10.404-64.26,10.404c-11.016-4.284-24.48-3.06-34.884,1.836c-12.24,5.508-22.644,18.972-25.092,33.048    c-27.54-8.568-46.512-1.836-70.38,15.3c-23.256,16.524-31.824,41.004-39.78,67.321c-1.224,4.284,3.06,7.956,6.732,6.731    c33.048-8.567,67.32,14.076,99.144,6.12c9.18,12.853,30.6,16.524,40.392,3.061c3.672,15.3,28.764,23.256,42.84,25.092    c3.06,0.612,6.12,0.612,9.18,0c-5.508,63.647,89.964,59.976,130.968,54.468c3.061-0.612,3.673-4.284,2.448-6.732    c-17.748-35.495-35.496-70.38-72.216-88.128c5.508-7.956,9.792-16.523,11.628-22.031c3.061-8.569,3.061-18.973,0.612-28.153    c15.912,1.836,30.6-1.836,42.228-13.464c6.12-6.732,10.404-14.688,16.524-21.42c14.688-15.912,32.436-14.688,51.408-12.852    C386.385,125.445,387.609,120.549,385.773,118.101z M369.249,106.473c-16.523-3.672-34.271-4.896-52.02-2.448    c1.224-1.836,2.447-3.672,3.06-5.508c0.612-2.448-2.448-4.284-4.284-2.448c-1.836,1.836-3.672,4.284-5.508,6.12    c-2.448,1.836-4.896,3.672-7.344,4.896l0,0c-12.853,3.672-25.092,9.792-35.496,18.36c0,0,0,0-0.612,0    c0.612-2.448,1.836-5.508,3.061-7.956c1.836-3.06,3.672-6.12,4.284-9.18c0.611-1.836-1.225-3.06-3.061-2.448    c-7.344,3.06-11.016,14.076-12.24,20.808c-0.611,1.836,0.612,3.672,2.448,4.284c-1.224,1.224-1.836,2.448-3.06,3.06    c-0.612-9.792-6.12-20.808-12.853-29.376C285.405,63.021,331.917,71.589,369.249,106.473z M13.677,216.634    C13.677,216.634,13.065,216.634,13.677,216.634c6.732-20.809,15.3-39.781,34.884-53.245s37.332-19.584,60.588-18.36    c-0.612,7.956,1.224,16.524,6.12,23.256c-6.732,0.612-13.464,2.448-19.584,4.284c-0.612-0.612-1.224-1.224-2.448-1.224    c-8.568-1.224-17.748-1.836-26.316-3.06c-3.06-0.612-3.672,4.284-0.612,4.896c5.508,1.224,11.628,1.836,17.136,3.06    c-9.792,3.672-19.584,7.956-29.376,12.852c-1.224-1.225-3.06-1.836-4.896-2.448c-4.896-1.224-9.792,0-14.076,1.836    c-3.672,1.225-2.448,6.733,1.836,5.508c3.06-0.612,5.508-1.836,8.568-1.224c0.612,0,1.224,0,1.836,0    C35.097,200.109,24.081,208.065,13.677,216.634L13.677,216.634z M101.805,227.038c-17.136-3.061-34.272-4.896-51.408-8.568    c-11.628-2.448-22.644-3.061-34.272-1.836c12.24-7.344,25.092-13.464,37.332-18.973c0,1.225,0,1.837,0,3.061    c-0.612,1.836-1.836,2.448-3.672,3.06c-2.448,1.225-1.224,5.509,1.224,5.509c6.732,0,7.956-7.956,6.12-12.853    c10.404-4.285,20.808-8.568,31.212-12.853c-0.612,4.896-0.612,10.404,1.836,14.077c1.224,3.06,6.12,2.447,6.732-0.612    c0.612-3.672,0-5.508-0.612-9.18c-0.612-2.448-0.612-4.285-0.612-6.732c6.732-2.448,12.852-4.896,19.584-7.344    C102.417,186.033,96.297,209.29,101.805,227.038z M204.621,262.533c9.792-2.447,18.972-7.956,22.032-16.523    c2.448,5.508,5.508,11.628,9.18,17.136c-3.06,5.508-3.672,12.853-2.448,18.972c0.612,3.061,4.896,3.061,4.284,0    c-0.611-4.283-0.611-9.792,1.225-14.075c6.119,8.567,13.464,16.523,22.031,23.256c1.225,6.12,1.836,12.24,3.672,17.748    c0,0.611,0,0.611,0.612,1.224C237.058,304.762,212.577,292.521,204.621,262.533z M320.901,309.657    c-16.524,1.836-34.272,2.448-51.408,0.612c1.224-0.612,1.836-1.836,1.224-3.672c-0.611-3.672-1.224-7.344-1.836-10.404    c14.688,9.181,31.212,15.3,48.96,14.076c2.448,0,3.061-3.672,0.612-4.284c-14.688-4.283-28.152-9.18-40.392-15.912    c3.06,0,6.119,0,9.792-0.611c3.06-0.612,1.836-4.896-0.612-4.896c-6.732,0-13.464,0-19.584-0.611    c-9.18-6.12-17.136-12.853-24.48-21.421c3.673-3.06,9.792-3.06,13.465,0.612c1.836,1.836,4.283-0.612,3.672-2.448    c-3.672-6.731-12.853-7.344-18.973-3.06c-0.611,0-0.611,0.612-1.224,1.224c-3.672-4.283-6.732-9.18-9.792-14.688    c-0.612-0.612-1.224-0.612-1.836-0.612c0-1.224,0.612-1.836,0.612-3.06c8.567,3.672,17.748-1.225,25.092-9.181    C286.629,245.397,305.602,277.834,320.901,309.657z M262.761,191.542c-1.224,5.508-5.508,17.749-12.239,27.541    c-3.061-0.612-4.896,3.06-4.284,5.508c-5.508,6.731-11.628,10.403-17.748,8.567c-0.612,0-1.225,0-1.225,0    c-1.836-1.836-5.508-1.836-6.119,1.836c-4.896,15.912-18.36,21.421-34.272,18.36c-11.016-2.448-36.72-9.18-36.108-23.868    c0-2.447-3.672-3.06-4.284-0.611c0,0.611,0,0.611,0,1.224c-0.612,0-1.224,0-1.836,0.612c-16.524,11.628-33.66,4.283-33.66-17.137    c0-14.688,4.284-31.212,15.3-42.228c1.836-1.836-0.612-4.896-2.448-3.672c0,0-0.612,0-0.612,0.612    c-4.896-17.136-7.344-33.66,7.344-47.124c6.732-6.732,15.912-10.404,25.092-10.404c8.568,0,26.316,4.284,26.316,15.3    c-0.612,0-0.612,0.612-1.224,0.612c-0.612,0.612,0,1.836,0.612,2.448l0,0c-0.612,1.224,1.224,1.836,1.836,0.612    c0.612-0.612,0.612-1.224,0.612-1.836c17.136-11.016,35.497,1.224,43.452,17.748c7.345,15.912,5.509,32.436-5.508,45.9    l-0.611-0.612c-3.061-1.836-6.732,1.836-4.896,4.896c6.732,11.017,2.448,23.257-10.404,26.316    c-7.956,1.836-25.704-1.836-32.436-9.792l0,0c1.224-2.448-0.612-4.896-3.06-5.508l0,0c0-1.836-3.06-1.225-3.06,0.612l0,0    c-4.284,1.224-7.956,3.06-13.464,2.447c-5.508-0.611-10.404-3.06-13.464-7.956c-6.12-9.792,1.836-26.316,12.24-29.988    c1.224-0.612,1.224-2.448-0.612-2.448c-0.612,0-1.224,0-1.836,0c1.224-0.612,2.448-2.448,1.224-4.284    c-5.508-8.568-3.672-21.42,6.732-25.092c5.508-1.836,11.016-1.224,15.912,1.224c2.448,1.224,16.524,12.24,9.792,14.076    c-1.224,0.612-0.612,1.836,0,1.836c1.224,0,1.836,0,2.448,0c-0.612,0.612-1.224,1.224-1.224,2.448    c-1.224,2.448,2.448,4.896,3.672,2.448c6.12-9.18,20.808-4.896,18.36,6.732c-1.225,4.284-3.061,7.956-6.732,9.792    c-4.284,2.448-9.18,1.836-14.076,1.836c-1.836,0-3.06,2.448-1.224,3.672c5.508,4.896,14.688,4.284,21.42,1.225    c7.344-3.672,11.016-12.24,8.568-20.196c-1.836-6.732-6.732-12.24-13.464-12.852c-3.061-0.612-6.732,0-9.792,1.224    c0.612-3.672-0.612-7.956-3.672-11.628c-6.732-7.344-17.136-11.628-26.928-10.404c-17.136,2.448-28.764,25.704-12.852,37.332    h0.612c-7.344,0.612-13.464,3.672-17.748,11.016c-4.284,7.344-4.896,17.137-1.224,25.093c6.12,11.628,28.152,20.808,39.168,10.403    c7.344,12.853,29.988,18.36,42.229,14.076c13.464-4.896,22.644-22.644,14.075-34.271c17.137-14.077,18.973-39.781,5.509-57.529    c-9.792-12.852-31.212-24.48-46.512-15.3c0.612-6.12-3.06-11.628-8.568-15.3c12.24-15.3,34.272-21.42,52.02-10.404    c12.853,8.568,32.437,37.332,19.584,52.02c-0.612,0.612-0.612,1.224-0.612,2.448c0,0.612,0,1.836,0.612,2.448    C259.701,164.001,265.209,176.241,262.761,191.542z M331.917,122.385c-23.868,17.136-23.868,46.512-61.2,45.9h-0.611    c-3.061-7.956-9.181-14.076-17.748-17.748c1.836-1.836,3.06-3.672,4.284-6.12c4.283-4.284,7.955-7.956,12.239-11.016    c6.12,0.612,12.24,0.612,18.36-1.836c3.06-1.224,1.836-5.508-1.224-4.896c-2.448,0.612-5.509,0.612-7.956,0.612    c9.18-5.508,18.972-8.568,29.376-11.016c2.447,1.224,4.896,2.448,7.344,3.672c1.836,0.612,3.06-2.448,1.224-3.06    c-0.611-0.612-1.224-1.224-1.836-1.836c17.136-3.06,35.496-2.448,54.468-2.448c2.448,0,3.061-2.448,3.061-3.672    c2.448,2.448,4.896,4.896,7.344,7.344C362.518,113.817,345.381,112.593,331.917,122.385z" data-original="#000000" class="active-path" data-old_color="#b4d2c8" fill="#b4d2c8"/>
	</g>
</g></g> </svg>
