<svg xmlns="http://www.w3.org/2000/svg" width="216.08" height="228.81" viewBox="0 0 216.08 228.81"><defs><style>.a{fill:#9a8e6c;stroke:#9a8e6c;stroke-width:3px;}.a,.b,.c,.d,.e,.f{stroke-linecap:round;stroke-linejoin:round;}.b,.c,.d,.e,.f{fill:#fff;stroke:#fff;}.b{stroke-width:0.05px;}.c{stroke-width:0.04px;}.d{stroke-width:0.04px;}.e{stroke-width:0.03px;}.f{stroke-width:0.04px;}</style></defs><title>Asset 1</title><path class="a" d="M214.58,120.77A106.54,106.54,0,1,1,108,14.23,106.54,106.54,0,0,1,214.58,120.77Z"/><path class="b" d="M123.48,108.61l1.56-2.07L127.8,104l3.79-2.76,5.87-4.49,4.92-3.19,4.4-2.67,4.57-2.59,6.21-2.76L164,83.33l3.11-.43,2.24.17,1.12.78c-10,11.05-20.23,22-31.14,32.87.39.78-.17,2.4,1.9,1.72,10.53-10.72,20.86-21.6,30.71-32.78l.26,2.93c-.1,1.64-.28,3.43-.61,5.52l-1.38,7.08-2.59,6.55-6.55,14-3.8,6.73-2.59,4.14L152,135.78l-3.79,3.37-4.49,3.28-6.47,2.33a13.94,13.94,0,0,1-6.82.77L125.21,144l-4-2.24a60.17,60.17,0,0,1-4.49-5.53,16.4,16.4,0,0,1-1.55-6.9l.35-6.21a42.38,42.38,0,0,1,4.31-9.32Z"/><path class="c" d="M84.89,120.85l-1.33,1.75-2.35,2.18L78,127.09l-5,3.76-4.16,2.66-3.72,2.23-3.86,2.15-5.23,2.26-5.44,1.75-2.6.32L46.14,142l-.93-.68c8.54-9.34,17.26-18.62,26.56-27.75-.32-.68.17-2.06-1.56-1.51-9,9-17.78,18.22-26.19,27.67l-.17-2.53c.11-1.4.29-2.94.6-4.73l1.27-6.06,2.27-5.6,5.7-11.91L57,103.21l2.23-3.52L61.57,97l3.22-2.83,3.8-2.74L74,89.52A11.45,11.45,0,0,1,79.74,89L84,90.4l3.27,2A48.59,48.59,0,0,1,91,97.22a14.69,14.69,0,0,1,1.18,6l-.39,5.34A37.31,37.31,0,0,1,88,116.46Z"/><path class="d" d="M101,73l-.78-1.77-.74-2.77-.54-3.55-1-5.56-.47-4.47-.32-3.94-.21-4,.16-5.21.6-5.19.65-2.29.76-1.49.78-.51c3.68,10.62,7.26,21.38,10.53,32.56.58,0,1.38.92,1.58-.72-3.33-10.89-6.8-21.68-10.6-32.24l1.82.81a35,35,0,0,1,3.12,2.27l3.81,3.34,3.16,4,6.42,9.23,2.9,4.89,1.72,3.18,1.1,3,.9,3.75.65,4.2-.5,5.25a11.73,11.73,0,0,1-1.52,5l-2.43,3-2.49,2a34.65,34.65,0,0,1-4.6,1.23,9.84,9.84,0,0,1-4.57-1.25l-3.6-2.34a32.51,32.51,0,0,1-4.3-6.11Z"/><path class="e" d="M118.56,26.31l-1.16-.63-1.57-1.26L114,22.58l-2.87-2.82L109,17.32l-1.83-2.21-1.82-2.32-2.12-3.25-1.88-3.49-.62-1.75L100.53,3l.2-.76C107.18,6.55,113.64,11,120.11,16c.31-.34,1.13-.23.54-1.35-6.38-4.7-12.79-9.26-19.29-13.49l1.32-.55a21.82,21.82,0,0,1,2.62-.4L108.74,0l3.37.63,7.32,1.94L123,3.88l2.26,1L127.15,6l2.06,1.76L131.34,10l2,3.46a10.41,10.41,0,0,1,1.29,3.88v3.23l-.48,2.62a33.72,33.72,0,0,1-1.92,3.37,6.9,6.9,0,0,1-3,1.83l-2.91.64a17,17,0,0,1-4.87-1.26Z"/><path class="f" d="M100.58,193l-1.24-1.63L98,188.73l-1.2-3.4-2-5.32-1.24-4.32-1-3.82L91.75,168l-.55-5.14v-5.16l.49-2.33.73-1.56.92-.61c6.16,9.92,12.21,20,17.94,30.51.73-.09,1.88.72,1.89-.92-5.76-10.23-11.69-20.34-18-30.18l2.41.55c1.28.48,2.67,1,4.25,1.81l5.28,2.76,4.55,3.5,9.41,8.19,4.37,4.4,2.61,2.89,1.82,2.78,1.67,3.55,1.42,4,.13,5.21a9.58,9.58,0,0,1-1.2,5.07l-2.62,3.31-2.85,2.28a54.05,54.05,0,0,1-5.61,1.82,15.53,15.53,0,0,1-5.93-.62L110,202.29a35,35,0,0,1-6.29-5.42Z"/></svg>