<svg xmlns="http://www.w3.org/2000/svg" width="216.08" height="216.08" viewBox="0 0 216.08 216.08"><defs><style>.a,.c{fill:#02a75b;stroke:#02a75b;}.a,.b,.c,.d{stroke-linecap:round;stroke-linejoin:round;}.a{stroke-width:3px;}.b{fill:#fefefe;stroke:#fefefe;}.b,.c,.d{stroke-width:0.05px;}.d{fill:#fff;stroke:#fff;stroke-opacity:0.94;}</style></defs><title>Asset 1</title><path class="a" d="M214.58,108A106.54,106.54,0,1,1,108,1.5,106.54,106.54,0,0,1,214.58,108Z"/><path class="b" d="M35.2,160l4.59,3.25,4.69,2.09L50.25,167l4.88,1.22,7.67,1.22,5,.74,4.64.11,5.82-.32,9.06-1.57,7.32-1.22,6-1.48,10.67-2.68,6-1.77,8.67-3,6.93-2.11a49.13,49.13,0,0,1,6.21-1.53,39,39,0,0,1,15.75,0,35.75,35.75,0,0,1,5.66,1.88,35.34,35.34,0,0,1,5.71,3.4A33.93,33.93,0,0,1,171,163.9l5.57,5.75a69.79,69.79,0,0,1,5.58,7.14l1.94,2.12c.22-.06.43-.16.59-.61a5.47,5.47,0,0,1,1.31,1.83,10.36,10.36,0,0,0-1.92.15l-2.22-.5-4.53-.77-6.67-.06-6.64.46-8.7,1.56c-3.11.73-6.36,1.8-9.58,2.79l-15.92,5.41C123.14,192,116,194,109.09,196.48L99,198.4l-9.28,1.66-6.75.78L72,201l-8.71-1.22a46.19,46.19,0,0,1-7.15-2.62c-3.28-1.33-5.63-3.34-8.19-5.23-2.75-2.85-5.66-5.81-7.08-9.17l-2.31-4.44-1.93-5.9-.61-3.69-.27-4.51-.17-1.39Z"/><path class="c" d="M47.26,182.71l-.34-1.88-.12-.89.38-2L48,175.5l.74-1.17,1.36-1,1.72-.93,1.91-.43,1.73-.06,2.52.49,2.34,1.06L62.85,175l2.28,2,1.72,2.65,1.79,3.45.56,3.27-.07,2.46L68,191.89a7.16,7.16,0,0,1-.86.93l-.38-.13-1.59,1.17-1.36.8-4.31-.06-3.14-1-2.71-1.54-2.34-2-1.79-2.15-1.17-2.28-.56-1.3Z"/><path class="c" d="M70.88,184.41l-.37-1.21c-.09-.54-.45-1-.18-1.63l0-2.32a10.24,10.24,0,0,1,.93-3.21,5,5,0,0,1,1.54-1.52l.92-.89a3.4,3.4,0,0,1,1.51-.65,10.48,10.48,0,0,1,2.15-.51l2.14,0,2.18.41a15.44,15.44,0,0,1,3.12,1.21l2.75,1.71,1.91,1.7L91.45,180a25.65,25.65,0,0,1,2,3.76,24,24,0,0,1,.51,2.61,15.46,15.46,0,0,1-.19,4,7,7,0,0,1-1.18,3,6.67,6.67,0,0,1-.81.95l-.62.6-1.42.71-1.88.65a17,17,0,0,1-4.27.09l-3.23-1.1a9.23,9.23,0,0,1-2.82-1.67c-.66-.21-1.45-1.48-2.23-2.16l-1.9-2-1.06-1.69-.86-1.73Z"/><path class="c" d="M95.43,182.15,95,180.7l-.14-1.52a8.18,8.18,0,0,1,0-2.91l.86-2.2,1-1.35A5.43,5.43,0,0,1,98,171.39a11,11,0,0,1,2.05-1l2-.37,2-.1c1.05.17,2.14.31,3.07.53a17.94,17.94,0,0,1,2.43.91,14.84,14.84,0,0,1,2.59,1.62,13.2,13.2,0,0,1,2.43,2.23,16.31,16.31,0,0,1,2.36,2.54c.89,1.68,2,3.39,2.25,5a11.86,11.86,0,0,1,.22,3.13,5.23,5.23,0,0,1-.76,2.49,10.35,10.35,0,0,1-1.86,2.91,7.67,7.67,0,0,1-1,.94l-.56.42-1.53.41-1.42.67a14.16,14.16,0,0,1-4.31-.06l-3.14-1-2.71-1.54-2.34-2L98,187l-1.17-2.28-.56-1.29Z"/><path class="c" d="M117.75,173.51a8.26,8.26,0,0,1-.36-2.62l0-2.06.33-1a14.57,14.57,0,0,1,1.19-2.38l1-1.21,1.36-1,1.72-.92,1.91-.43,1.73-.07,2.53.5,2.34.8,2.55,1.09,2.54,1.77,2.27,2.48a22.56,22.56,0,0,1,2.28,3.38,8.34,8.34,0,0,1,1,3.44,21,21,0,0,1,.11,3.08,12.31,12.31,0,0,1-1.43,3.32,13.59,13.59,0,0,1-1.08,1.29l-1,.79-.91.59-2.64.6a13.26,13.26,0,0,1-4.51-.17l-3.47-1.09-3-1.7a6.54,6.54,0,0,1-2.15-1.9L120.32,178l-1.19-1.84-.73-1.27Z"/><path class="c" d="M141.7,167.79l-.48-1.82-.11-1.06a9.85,9.85,0,0,1,.16-1.91,14.27,14.27,0,0,1,1-2.84l1-1.08,1.53-1,1.92-.83,1.8-.11,1.77-.1,2.75.49c.72.34.95.31,2.1.76a11.1,11.1,0,0,1,3.22,2.29,6.8,6.8,0,0,1,1.61,1.16l2.07,2a15.36,15.36,0,0,1,1.83,4,15.67,15.67,0,0,1,.6,3.48,17.81,17.81,0,0,0-.28,2.38l-.87,1.75a18.88,18.88,0,0,1-1.47,1.58l-.92.64L160,178l-1.73.47-3.42.18-3.33-.79-2.65-1.39-2.56-1.86-2.74-2.81-.78-1.16-.54-1.32Z"/><path class="d" d="M70.86,49.32l2-6.78L74.43,38l2.34-4.68,2.59-4.81,3.33-4.68,2.71-3.45,2-2.22,2.84-3.08,4.31,2.34,4.81,3.45L105,25.17l4.07,4.31,3.33,3.45,3.2,4.56,2.84,3.94,2.34,4.07,1.6,3.94,1.35,4.31.74,4.19.25,4.69-.25,4.31L123,71.25l-1.6,4.32-2.46,4.06-2.47,3.08-3.2,3.82-3.2,3.21-6.17,4.43C100.8,74.05,98.31,53.92,94,33.79c1.52,19.15,4.33,40,6.77,60.38l-3.32-1.11-2.84-.61-3.57-1.6-4.68-2.47L84.17,87l-2.1-1.61-2.83-2.21L77,80.86,74.8,78.28l-2.22-3.7L70.37,68.3l-.5-2.59-.61-5,.49-4.44.62-4.31Z"/><path class="d" d="M99.69,112l-48-4.8,10.59,2.21,9.86,1.61,7.64,1,10.6,1.73,8.63,1-2.35,3.82-2.83,3.82-3.57,3.7-3.33,2.71-3.82,2.46-4.31,1.48-3.82.74H69.75l-4.56-.86-4.56-1.36-6.41-2.95L47.45,124l-5.06-4.19-3.82-4.06-3.94-4.93-2.46-3.45-2.1-3.21,3.08-2.71,4.93-4.31,3.33-2.46,3.33-2.1,6.53-3.2,4.43-2.1L60.88,86l6.28-.86,5.18-.13,4.8.87,4.07,1,4.68,2.59,4.19,4.19,4,5.18,3.32,5.42,1.48,5.17Z"/><path class="d" d="M108.32,110.44l.49-4.07v-3.45l.74-3.08,1.24-4.56,2.46-5.17,3.2-4.69,5.06-4.68,4.93-2.59,3.82-1.48,5.42-.73,4.31-.5,5.55.13,5.05.37,5.67,1,5.42,1.6,4.93,1.85,4.68,1.73,4.93,3.08-.74,3.32-1.85,4.19-2.83,6.78-3.08,4.93-2.59,3.45-3.57,4.93-3.21,3.7c-1.31,1.43-2.73,2.13-4.68,3.57l-4.44,3-3.94,1.85-4.19,1.35-4.31.49-5.18-.24L126.8,125,121,122.39,116,119.06l-4.31-3.45-2.22-2.83,19.47-7.64,9.73-3.82,12-4.81,9.61-4.06,12.2-4.69-11.83,3.95-10.72,3.82-8.75,3.08-8.26,2.59-9.49,3.69-5.91,2Z"/><path class="d" d="M100.93,94.05l2.95.12.5,2.72.24,2.34.13,3.45.37,4.19.74,4.55,2.46-1.23,1,2.47L106,114.14l.37,3.32.12,2.59v5.55l-.24,3.57-.37,3-.37,3.08-.74,3.57L103.51,143l-1.23,3.33-1.6,3.2-2.22,3.95-1.72,3-2.1-.86,1.6-2.22,2-3.57,2.09-4.68,1.36-4.07,1-3,.62-3,.61-3a83,83,0,0,0,.62-9.86l-.12-5.18-.62-2h0l-4.68-.24.74-2.72,3.57.37-.86-4.19-.49-4.92-.12-3.08Z"/></svg>