<svg xmlns="http://www.w3.org/2000/svg" width="159.77" height="159.77" viewBox="0 0 159.77 159.77"><defs><style>.a,.e{fill:#82104e;}.a,.e,.g{stroke:#82104e;}.a,.d,.g{stroke-linecap:round;stroke-linejoin:round;}.a{stroke-width:3px;}.b,.c{isolation:isolate;}.c{font-size:41.03px;font-family:MyriadPro-Regular, Myriad Pro;}.c,.d,.f,.g{fill:#fff;}.d,.f{stroke:#fff;}.d,.e,.f{stroke-width:0.05px;}.g{stroke-width:0.78px;}</style></defs><title>Asset 1</title><path class="a" d="M158.27,79.89A78.39,78.39,0,1,1,79.89,1.5,78.38,78.38,0,0,1,158.27,79.89Z"/><g class="b"><text class="c" transform="translate(44.01 55.16)">E</text></g><g class="b"><text class="c" transform="translate(68.34 55.37)">-</text></g><g class="b"><text class="c" transform="translate(81.33 55.16)">X</text></g><path class="d" d="M105,134.17l-.07-5.17,24.74-14.7-.31-30.52L104.78,69.86l-.07-5.65H101v5.54L79.71,82.12,58.07,69.6l.09-5.3-3.6-.06v5.29L30,83.61l-.21,31.08L54.54,129v5.05l3.73.13,0-5.22,21.15-12.46,21.56,12.28-.16,5.48Z"/><path class="e" d="M56.55,76.35l19.71,11.4,0,22.79-20,11.95-20-11.55.09-23.43Z"/><path class="f" d="M40.15,88.91l2,3.3,15.22-8.85L55.5,80.11Z"/><path class="e" d="M103.43,75.12l19.71,11.4.06,22.79-20,12-20-11.55.09-23.43Z"/><path class="f" d="M86.7,88.87l2,3.3,15.22-8.85-1.83-3.25Z"/><path class="f" d="M116.25,90.48l3.63.08-.07,18.4-16.08,9.53-1.82-3.34,14.26-8.08Z"/><path class="f" d="M69.5,90.45l4,.07-.07,18.41-16.08,9.53-2.11-3.13,14.26-8.15Z"/><path class="g" d="M39.4,86.49a5.66,5.66,0,1,1-5.66-5.65A5.65,5.65,0,0,1,39.4,86.49Z"/><path class="g" d="M39.14,112.07a5.66,5.66,0,1,1-5.66-5.65A5.65,5.65,0,0,1,39.14,112.07Z"/><path class="g" d="M85.37,113.31a5.65,5.65,0,1,1-5.65-5.65A5.65,5.65,0,0,1,85.37,113.31Z"/><path class="g" d="M131.94,112.77a5.66,5.66,0,1,1-5.65-5.65A5.65,5.65,0,0,1,131.94,112.77Z"/></svg>